/* XPM */
static char *_80cf36662134a49b8713475373775f9kWudxJpXnqnJk8Ny[] = {
/* columns rows colors chars-per-pixel */
"32 32 54 1 ",
"  c None",
". c #82604A",
"X c #83614B",
"o c #83624B",
"O c #85634C",
"+ c #86644D",
"@ c #87654E",
"# c #88664E",
"$ c #88664F",
"% c #88674F",
"& c #89674F",
"* c #8A6850",
"= c #8A6950",
"- c #8A6951",
"; c #906D55",
": c #916E55",
"> c #947157",
", c #967359",
"< c #99785D",
"1 c #9A795E",
"2 c #9A7A5E",
"3 c #9E7E62",
"4 c #9F7E62",
"5 c #AA8568",
"6 c #AA8569",
"7 c #AC876A",
"8 c #AE896C",
"9 c #AF8A6D",
"0 c #C19D7C",
"q c #C19E7D",
"w c #C4A07F",
"e c #C6A280",
"r c #C5A783",
"t c #C6A884",
"y c #C8A985",
"u c #C9AB86",
"i c #CAAC87",
"p c #CBAD88",
"a c #D3B48E",
"s c #D5B68F",
"d c #D8B892",
"f c #D8B992",
"g c #DBBE96",
"h c #DCBF96",
"j c #DCBF97",
"k c #DDC097",
"l c #DDC098",
"z c #DEC098",
"x c #DEC198",
"c c #DFC299",
"v c #E0C29A",
"b c #E0C39A",
"n c #E1C49B",
"m c #E2C59C",
/* pixels */
"                                ",
"                                ",
"                                ",
"                                ",
"                                ",
"                                ",
"                                ",
"                                ",
"                    OXX         ",
"                    +::         ",
"                    $55$X       ",
"                    :90>:       ",
"      XXXXXXXXOX$XXX$as85OXX    ",
"      :::::::::->:::,jcee>::    ",
"     &587855757675778ccfa875$   ",
"     &00e0eeeeeeeeeeecnccee0$   ",
"     *afdddfffffsffffcmmcffa-   ",
"     *knmbmnbnnnccmmnncccmnj-   ",
"     *gnbmnnnnnncmcmnccnmnnj-   ",
"     *knmbnnnnnnmmcmmcnccnci-   ",
"     *cnnnnmnnnnmmcnmccnbnc3    ",
"     *tiuuupiiiiuiurpcncbit+    ",
"      121111121133,33jcmc33     ",
"      ..............$ccpt+X     ",
"                    $jc31       ",
"                    *tt+.       ",
"                    +11         ",
"                    O..         ",
"                                ",
"                                ",
"                                ",
"                                "
};
