/* XPM */
static char *fad30bdb1da84794d5db69e0f1a97bc5zBGnWid9nn9cJMPM[] = {
/* columns rows colors chars-per-pixel */
"32 32 28 1 ",
"  c black",
". c #040404",
"X c gray3",
"o c gray9",
"O c #232323",
"+ c #434343",
"@ c #464646",
"# c #555555",
"$ c #5B5B5B",
"% c #5F5F5F",
"& c gray39",
"* c gray40",
"= c #6A6A6A",
"- c #9A9A9A",
"; c gray62",
": c #A2A2A2",
"> c #A5A5A5",
", c gray69",
"< c gray73",
"1 c #BCBCBC",
"2 c #C3C3C3",
"3 c gray77",
"4 c gray81",
"5 c #D0D0D0",
"6 c #D7D7D7",
"7 c gray97",
"8 c #FBFBFB",
"9 c white",
/* pixels */
"           .    .. .     .      ",
"            .  .  .   .   . . . ",
"              .       ..     .  ",
"              . XXX.X . . .     ",
"            .  X         . .    ",
"             .  *&&%*=o     . . ",
"           . .  999998@  .   .  ",
"                8788899#  .     ",
".           .  #9999989<@    .  ",
" @&$$$$$$$$$$#6899898998<+      ",
" 489999999998998899999999<+     ",
" 2989898999988999999899899<+. . ",
" 28899999999897989998999999<+   ",
" <99999999999998999989998989<+  ",
" 3989999999989998999999999899<@ ",
" <9999999998999999998989899999< ",
" 18899999999897989998998999993@.",
" <99999999999999999989998989<O .",
" 29899999999899979999989989<@   ",
" 1898888888887999989889999<+  . ",
".599999999999898999998899<@   . ",
" @&#$$$$$$$$%#6879998999<+ .    ",
"   .        .. #9999889<+       ",
"    .          .7888889#   . .  ",
"             . X999899@.    . . ",
"           .  . ;:->;,O    .    ",
"            .X    .   X.. .     ",
"           .     .. X        .  ",
"           . X X.     .     . . ",
"            .     X  .   . .    ",
" .            . .   . ...       ",
"            .   .     .    . .  "
};
