/* XPM */
static char *_406952750864a78c7e6f5d6ba779d67KDTzZu7K94RwwZa1[] = {
/* columns rows colors chars-per-pixel */
"32 32 217 2 ",
"   c None",
".  c #505524",
"X  c #505624",
"o  c #515624",
"O  c #545824",
"+  c #555925",
"@  c #5C5F26",
"#  c #5D5F26",
"$  c #5C6025",
"%  c #5C6026",
"&  c #5D6126",
"*  c #5F6126",
"=  c #5E6226",
"-  c #616227",
";  c #626427",
":  c #636427",
">  c #626527",
",  c #626627",
"<  c #666B28",
"1  c #696A28",
"2  c #696B28",
"3  c #6A6A28",
"4  c #696C28",
"5  c #686E28",
"6  c #6A6F28",
"7  c #6C6E28",
"8  c #6D6E28",
"9  c #6D6F28",
"0  c #6E6F28",
"q  c #6F6F28",
"w  c #6E6F29",
"e  c #6F6F29",
"r  c #76612B",
"t  c #7A642B",
"y  c #79632C",
"u  c #7B652C",
"i  c #7E6F2B",
"p  c #7F692C",
"a  c #6B7028",
"s  c #6B7129",
"d  c #6E7028",
"f  c #6F7029",
"g  c #6D7329",
"h  c #707029",
"j  c #717029",
"k  c #727529",
"l  c #747429",
"z  c #757429",
"x  c #747529",
"c  c #757629",
"v  c #757729",
"b  c #767729",
"n  c #7A762A",
"m  c #757B2A",
"M  c #777A2A",
"N  c #787B2A",
"B  c #797B2A",
"V  c #7B7B2A",
"C  c #7B7C2A",
"Z  c #7C7C2A",
"A  c #7D7C2A",
"S  c #7D7D2B",
"D  c #7D7F2B",
"F  c #7F7F2B",
"G  c #A25D34",
"H  c #B75C39",
"J  c #B75D39",
"K  c #B85D39",
"L  c #806F2B",
"P  c #80692C",
"I  c #85712C",
"U  c #817E2B",
"Y  c #9A712F",
"T  c #927C2E",
"R  c #9A7230",
"E  c #AA6237",
"W  c #AC6535",
"Q  c #B26937",
"!  c #BF6239",
"~  c #BE613A",
"^  c #BF623A",
"/  c #AE7833",
"(  c #BE7536",
")  c #C0623A",
"_  c #C0633A",
"`  c #C1633A",
"'  c #C26639",
"]  c #C1643A",
"[  c #C2643A",
"{  c #C2653A",
"}  c #C3653A",
"|  c #C3653B",
" . c #C2663A",
".. c #C3663A",
"X. c #C3673A",
"o. c #C4663A",
"O. c #C46939",
"+. c #C46A39",
"@. c #C8693B",
"#. c #CC6B3B",
"$. c #CC6D3B",
"%. c #CF6D3B",
"&. c #CF6F3A",
"*. c #CA693C",
"=. c #CC6A3C",
"-. c #CC6B3C",
";. c #CB6C3C",
":. c #CF6D3D",
">. c #D16E3B",
",. c #D06D3D",
"<. c #D06E3D",
"1. c #D26E3D",
"2. c #D26F3D",
"3. c #C07637",
"4. c #C57D36",
"5. c #CC7E37",
"6. c #CE7F38",
"7. c #D3713B",
"8. c #D3753A",
"9. c #D3703C",
"0. c #D3713C",
"q. c #D3703D",
"w. c #D2713D",
"e. c #D4713C",
"r. c #D5713C",
"t. c #D6713C",
"y. c #D6723C",
"u. c #D7723C",
"i. c #D7733C",
"p. c #D5753C",
"a. c #D7743D",
"s. c #D7753D",
"d. c #D8733C",
"f. c #D9743C",
"g. c #D9753C",
"h. c #D9753D",
"j. c #DA753C",
"k. c #DA753D",
"l. c #D9763D",
"z. c #DB763C",
"x. c #DB763D",
"c. c #D9763E",
"v. c #D9773E",
"b. c #DC773C",
"n. c #DC773D",
"m. c #DD773D",
"M. c #D7783B",
"N. c #DC7A3B",
"B. c #DD7B3B",
"V. c #D87E3A",
"C. c #DE7E3B",
"Z. c #DA793C",
"A. c #DB783E",
"S. c #DC783C",
"D. c #DC793C",
"F. c #DD783D",
"G. c #DF793D",
"H. c #DC793E",
"J. c #DF7A3E",
"K. c #DF7C3C",
"L. c #DE7D3C",
"P. c #DF7D3C",
"I. c #E07E3B",
"U. c #E17C3F",
"Y. c #E27C3E",
"T. c #E27D3E",
"R. c #E27D3F",
"E. c #E37E3F",
"W. c #E57F3F",
"Q. c #7E802B",
"!. c #7F802B",
"~. c #80802B",
"^. c #83802B",
"/. c #83812B",
"(. c #82822B",
"). c #84832B",
"_. c #86842C",
"`. c #8A862C",
"'. c #8C882C",
"]. c #8D882C",
"[. c #8D892D",
"{. c #8D8A2D",
"}. c #97922E",
"|. c #9A942E",
" X c #C98137",
".X c #DC813A",
"XX c #DD823A",
"oX c #E1823B",
"OX c #E2823B",
"+X c #E2833B",
"@X c #E3833B",
"#X c #E3843B",
"$X c #E3873A",
"%X c #E4853B",
"&X c #E5853B",
"*X c #E6853B",
"=X c #E5873B",
"-X c #E6873B",
";X c #E7873B",
":X c #E2803C",
">X c #E2813D",
",X c #E5803F",
"<X c #E5823E",
"1X c #E6873D",
"2X c #E3883A",
"3X c #E4883A",
"4X c #E5883B",
"5X c #E7883B",
"6X c #E58B3A",
"7X c #E68A3A",
"8X c #E78C3A",
"9X c #E68D3A",
"0X c #E78A3C",
"qX c #E88F39",
"wX c #E88C3A",
"eX c #E88D3A",
"rX c #E98F3A",
/* pixels */
"                            X X X X                             ",
"                            @ $ & &                             ",
"                        o & e M x f & X                         ",
"                        o & x /./.k & O                         ",
"                - ; : # O & M !.M s ; & - :                     ",
"                j j h 2 @ & k M g 6 e j h h                     ",
"            ; e U {.'.U 2 ; s g < e /.{.]./.e ;                 ",
"            ; h '.|.}.`.x 4 5 4 < x `.}.|.].h ;                 ",
"            ; h ].}.{.).S x 4 2 x Z ).{.}.{.j >                 ",
"            ; f /._.Z B !.Z h h A U B A _.^.e >                 ",
"                9 e 2 d C !.B B Z Z 9 2 e 9                     ",
"                y t P L n C Z Q.B B i p y r                     ",
"                E Q 3./ n e C C 9 i / ( W G                     ",
"                $.p.I.6.Y L T T I Y 6.I.>.'                     ",
"            H O.V.2X&X.X8.4. X X4.5..X&XC.8.' K                 ",
"            K O..X8X7X7X7X5X&X&X7X&X&X@X@XM.' K                 ",
"            K o.A.0X9X8XwX8X&X&XwXwX=X@XC.r._ K                 ",
"            K | s.<X0X0X8X2X@X@X7X$X@XC.b.>._ K                 ",
"            K ' v.<X@X@XC.N.J.J.B.B.A.b.j.>._ K                 ",
"            K ' 0.v.R.J.J.j.d.d.r.r.r.r.r.#._ K                 ",
"                | ;.v.W.W.J.b.1.1.,.,.#.o._                     ",
"                H ` s.R.J.J.A.d.,.,.,.*.~ K                     ",
"                K _ ,.J.b.v.j.r.d.d.d.%._ K                     ",
"                K _ =.r.j.A.j.j.d.r.,.%._ K                     ",
"                    ~ *.j.J.j.r.,.=.' '                         ",
"                    K ' j.R.J.j.r.*.~ K                         ",
"                    H | v.E.R.J.j.,.~ K                         ",
"                    K ' 0.v.v.v.0.=._ K                         ",
"                        | ' | ' ' _                             ",
"                        K K K K H K                             ",
"                                                                ",
"                                                                "
};
