/* XPM */
static char *_4b8eef4bc7248b7b6bbf72f03cc2351prr2KtVjaR4OabWp[] = {
/* columns rows colors chars-per-pixel */
"32 32 14 1 ",
"  c None",
". c #566D3B",
"X c #5E743D",
"o c #617A41",
"O c #677C40",
"+ c #B55E36",
"@ c #BF6C3B",
"# c #C16E37",
"$ c #C77638",
"% c #7D8F46",
"& c #D6833A",
"* c #D98D39",
"= c #E3A03B",
"- c #95A14A",
/* pixels */
"                                ",
"                                ",
"                                ",
"                                ",
"                                ",
"                                ",
"                                ",
"                                ",
"                                ",
"                OO    ..        ",
"               O--O  .%%.       ",
"               O-%-O.%o%.       ",
"                OO%O.o%.        ",
"                  O%oo.         ",
"              @@@ X%o.O         ",
"             @*=*@X%%%-O        ",
"             @$**&@XXX%-O       ",
"            @*&$&&$+ O--O       ",
"            @$&&$*$+  OO        ",
"           @*&$&$&$+            ",
"           @$&#$#$+             ",
"          @&&$#$++              ",
"         @**$#++                ",
"         @*&++                  ",
"          ++                    ",
"                                ",
"                                ",
"                                ",
"                                ",
"                                ",
"                                ",
"                                "
};
