/* XPM */
static char *af237904183a4c43ef23f1374eafbabaxg5IaTTTCUHLAPui[] = {
/* columns rows colors chars-per-pixel */
"32 32 13 1 ",
"  c None",
". c #3A3737",
"X c #6B2A2C",
"o c #772E2F",
"O c #9C3838",
"+ c #AB3C38",
"@ c #BA483C",
"# c #827C7C",
"$ c #BC8B6D",
"% c #CDAE67",
"& c #B7B3B2",
"* c #D6B39D",
"= c #EFE9E7",
/* pixels */
"                                ",
"                                ",
"            ..  ...             ",
"           .=. .#&.             ",
" XX oo    .#=..&==.             ",
"XO+X+@o   .==..===.             ",
"XOO+++o  .#==.&=*=.             ",
" XOO+o   .&=&#=**=.             ",
"  XOo    .&=.&=**.              ",
"   X    ...#.=***.              ",
"       .==&&#=**$.              ",
"      .&====#=*$.               ",
"     .#=======*&.....           ",
"     .&==.=&===#&==&#..         ",
"    .&==&..===&#======&.        ",
"   .#==================&.       ",
"   .&========&==========#.      ",
"   .%%.=====&#==========&.      ",
"    .#====&.#============#.     ",
"     ..#&#.&=============&.     ",
"       ...&==============#=.    ",
"         .&====&=========&=.    ",
"         .#&===&&========&&.    ",
"          .#&&&&.&====&==#.     ",
"          ...#&&#.#&&.&=&#.     ",
"          .#..&&&....#&&&.      ",
"         .&.#===&..#==&&#.      ",
"         .&.====. .&===..       ",
"          ......   .....        ",
"                                ",
"                                ",
"                                "
};
