/* XPM */
static char *_da1277a4cdd404eb3e6aa1628c5310bzANAaOfla1GrFBsc[] = {
/* columns rows colors chars-per-pixel */
"17 17 16 1 ",
"  c None",
". c #533C37",
"X c #60423E",
"o c #7F5746",
"O c #7A5548",
"+ c #866B5D",
"@ c #A47458",
"# c #AB795B",
"$ c #967361",
"% c #B28666",
"& c #D1826A",
"* c #F5937A",
"= c #C7A68B",
"- c #C2A691",
"; c #D3BB9C",
": c #D8BFA7",
/* pixels */
"                 ",
"                 ",
"                 ",
"                 ",
"                 ",
"                 ",
"          OO OO  ",
"         O*%O@*O ",
"         O*#O@*O ",
"  ++  oooO&#O@&O ",
" +:-oo%%#O###;@O ",
" +-o%%%%O####;;@O",
"  X#%%##$;##.;;.O",
"  X=####$;;;;;&-O",
"  X==###=$;;;;;$ ",
"  X=======$$$$$  ",
"   X=XXXXX=XX=X  "
};
