/* XPM */
static char *_bd6e0b12b61489c8acdbb6204eea76fqg5vL9eJZHm22D3c[] = {
/* columns rows colors chars-per-pixel */
"32 32 13 1 ",
"  c None",
". c #3A3737",
"X c #6B2A2C",
"o c #772E2F",
"O c #9C3838",
"+ c #AB3C38",
"@ c #BA483C",
"# c #827C7C",
"$ c #BC8B6D",
"% c #CDAE67",
"& c #B7B3B2",
"* c #D6B39D",
"= c #EFE9E7",
/* pixels */
"                                ",
"                                ",
"             ...  ..            ",
"             .&#. .=.           ",
"             .==&..=#.    oo XX ",
"             .===..==.   o@+X+OX",
"             .=*=&.==#.  o+++OOX",
"             .=**=#&=&.   o+OOX ",
"              .**=&.=&.    oOX  ",
"              .***=.#...    X   ",
"              .$**=#&&==.       ",
"               .$*=#====&.      ",
"           .....&*=======#.     ",
"         ..#&==&#===&=.==&.     ",
"        .&======#&===..&==&.    ",
"       .&==================#.   ",
"      .#==========&========&.   ",
"      .&==========#&=====.%%.   ",
"     .#============#.&====#.    ",
"     .&=============&.#&#..     ",
"    .=#==============&...       ",
"    .=&=========&====&.         ",
"    .&&========&&===&#.         ",
"     .#==&====&.&&&&#.          ",
"     .#&=&.&&#.#&&#...          ",
"      .&&&#....&&&..#.          ",
"      .#&&==#..&===#.&.         ",
"       ..===&. .====.&.         ",
"        .....   ......          ",
"                                ",
"                                ",
"                                "
};
