/* XPM */
static char *result[] = {
/* columns rows colors chars-per-pixel */
"32 32 14 1 ",
"  c #3A3737",
". c #6B2A2C",
"X c #772E2F",
"o c #9C3838",
"O c #AB3C38",
"+ c #BA483C",
"@ c #827C7C",
"# c #BC8B6D",
"$ c #C49172",
"% c #CDAE67",
"& c #B7B3B2",
"* c #D6B39D",
"= c #EFE9E7",
"- c None",
/* pixels */
"--------------------------------",
"--------------------------------",
"--------------------------------",
"------   -------------   -------",
"------ &= ----------- =& -------",
"------ === --------- === -------",
"------ =#=& --   -- &=#= -------",
"------ =*&=@  &=&  @=&*= -------",
"------- ***=@ @@@ @=*** --------",
"------- $**=&@   @&=**$ --------",
"-------- **&= &&& =&** ---------",
"------- @ *&=&===&=&* @ --------",
"------- && &=======& && --------",
"------ @=&&@&=====&@&&=@ -------",
"------ &=&&@ &===& @&&=& -------",
"------ ==&@& &&&&& &@&== -------",
"------ == &=@&===&@=& == -------",
"------ == ==&=====&== == -------",
"------ &= &== %%% ==& =& -------",
"------- == ===   === == --------",
"------  @== @&& &&@ ==@  -------",
"------ &&@==   &   ==@&& -------",
"------ == &=&=====&=& == -------",
"-------    =@ &=& @=    --------",
"---------  &=XX ..=&  ----------",
"---------- &X+O.Oo.& -----------",
"--------- ==XOOOoo.== ----------",
"--------- ===XOoo.=== ----------",
"----------    Xo.    -----------",
"---------------.----------------",
"--------------------------------",
"--------------------------------"
};
