/* XPM */
static char *f052d73212074a44e9f35f6df3fb536erW5OY2uV1U1JCFIX[] = {
/* columns rows colors chars-per-pixel */
"32 32 136 2 ",
"   c None",
".  c #784D3B",
"X  c #634E49",
"o  c #7D5442",
"O  c #7C5B4B",
"+  c #7D5F53",
"@  c #74615D",
"#  c #746765",
"$  c #7D6C66",
"%  c #7F726F",
"&  c #7D7474",
"*  c #7C7778",
"=  c #7F7879",
"-  c #835D4D",
";  c #856A5C",
":  c #8C6859",
">  c #99735E",
",  c #A77459",
"<  c #AA775B",
"1  c #8C6F61",
"2  c #8C7163",
"3  c #8B756C",
"4  c #8F786D",
"5  c #947365",
"6  c #9C7765",
"7  c #967A6D",
"8  c #867672",
"9  c #867875",
"0  c #8D7A76",
"q  c #827979",
"w  c #897F7E",
"e  c #967F75",
"r  c #9C7B73",
"t  c #927C78",
"y  c #A67760",
"u  c #B87A64",
"i  c #A27E76",
"p  c #C77E62",
"a  c #8A807F",
"s  c #9F8373",
"d  c #95837E",
"f  c #99817C",
"g  c #BA826F",
"h  c #A08574",
"j  c #A48379",
"k  c #AB827A",
"l  c #A48A7D",
"z  c #CC836F",
"x  c #D38367",
"c  c #DA876B",
"v  c #DB886B",
"b  c #C38A72",
"n  c #C78879",
"m  c #DD8B76",
"M  c #E58F7A",
"N  c #E7907A",
"B  c #E8907A",
"V  c #8F8786",
"C  c #928382",
"Z  c #938B8B",
"A  c #978F90",
"S  c #9D9292",
"D  c #A38C81",
"F  c #AC9287",
"G  c #A29089",
"H  c #AC948B",
"J  c #BE9F8D",
"K  c #A29696",
"L  c #AE9C92",
"P  c #A59B9B",
"I  c #A99E9E",
"U  c #B19992",
"Y  c #B7A097",
"T  c #BFA493",
"R  c #B6A099",
"E  c #B9A49B",
"W  c #A7A1A1",
"Q  c #ACA3A3",
"!  c #B1A5A2",
"~  c #B6ADAD",
"^  c #B8AFAF",
"/  c #B5B3B4",
"(  c #BAB2B2",
")  c #BBB7B8",
"_  c #BCB9BA",
"`  c #C09D8A",
"'  c #C8998B",
"]  c #D69886",
"[  c #CBA794",
"{  c #C4AB95",
"}  c #D5A89D",
"|  c #E1AA9A",
" . c #EDB09F",
".. c #C6B4AD",
"X. c #CFBCAE",
"o. c #D2B1A9",
"O. c #DCB4A9",
"+. c #D0BCAD",
"@. c #C1B7B7",
"#. c #CCBAB4",
"$. c #C2BBBB",
"%. c #CBBEBA",
"&. c #DEBBB0",
"*. c #FAB9A8",
"=. c #E8BDB0",
"-. c #FFC0AF",
";. c #E8C8BF",
":. c #C5C2C2",
">. c #CBC5C5",
",. c #CEC9C9",
"<. c #D2C6C2",
"1. c #D3CDCD",
"2. c #D1CFD0",
"3. c #D5D1D1",
"4. c #DCD4D2",
"5. c #DDDBDC",
"6. c #E1D1C7",
"7. c #E3DAD6",
"8. c #E0DEDE",
"9. c #E9DEDC",
"0. c #F6DCD3",
"q. c #E7E1DE",
"w. c #EBE1DB",
"e. c #F8E3DC",
"r. c #E0DFE0",
"t. c #E3E2E2",
"y. c #EBE6E4",
"u. c #EFE9E7",
"i. c #ECECEC",
"p. c #F3EFEE",
"a. c #F8EDEB",
"s. c #F3F3F3",
"d. c #FBF6F5",
"f. c #FAF8F7",
"g. c #F7F7F8",
"h. c #FDFDFD",
/* pixels */
"                                                                ",
"                                                                ",
"                                                                ",
"                                                                ",
"                                                                ",
"                                                                ",
"                                                                ",
"                                                                ",
"                                                                ",
"                                                                ",
"                                                                ",
"                                      * & &       = * *         ",
"                                      t C Z Z   8 9 0 t         ",
"                                  * i n } 1.) a 2 6 g n j q     ",
"                                  = i M *.a.:.V 2 < v B k *     ",
"                                  q i B *.8.) w 2 < v B k q     ",
"                                  & i m  .4./ a 1 , x c h =     ",
"        ; ; ;           o o o o + % r z | 4./ a 1 , x z r q     ",
"      7 s l C s       h D D l j e 9 f ' &.4.:.W L J g g 7 q     ",
"    ; s { X.#.F - . : ..u.u.t.3.( V S <.5.r.3.3.q.w.[ < 3 q     ",
"    ; l X.#.E U H F Y 7.h.h.f.2./ W / 5.r.r.t.y.g.h.6.T j 4 8   ",
"    ; G %.R 5 E u.a.p.f.h.h.y.W S :.5.r.r.r.5.5.i.h.h.w.J > 3 q ",
"      G ^ E U <.h.h.h.f.s.s.5.P P 5.p.t.r.5.) P ,.h.h.s.F O $ = ",
"        P ( 3.i.h.h.h.i.r.t.3.Q / y.g.t.t.r.P @ ! f.h.y.d X # q ",
"        K _ y.s.i.i.i.t.r.r.2.Q ^ i.h.s.p.p.>.! 1.f.0.O.U C q q ",
"        K $.y.i.t.r.t.t.r.t.3.~ ( y.h.h.h.h.h.f.h.d.=.] o.@.A 9 ",
"        P $.i.i.i.r.r.r.r.r.5.2.,.:.4.f.h.h.h.h.h.h.e.;.#.~ S   ",
"        K _ i.s.s.t.t.t.r.r.t.s.5.^ _ y.g.s.s.s.s.s.g.y.$.K     ",
"        P $.i.g.s.i.i.i.i.i.p.s.i.5.>.$.@.$.$.$.$.@.$.$.~       ",
"        S _ 5.i.p.y.t.t.t.t.r.r.t.t.1.^ W K K K I Q I K         ",
"          ! ^ 1.y.2.( ~ ^ ^ ~ ^ ~ ^ %.2.%.P S K ) 1.^ K         ",
"            K :.y.:.K S S K K K S K ) t.3.W S P ,.y.:.K         "
};
