/* XPM */
static char *e495435499fc4c699ac1e564bb0f8b22TgJe2fbI71O8cJEw[] = {
/* columns rows colors chars-per-pixel */
"32 32 8 1 ",
"  c None",
". c #3A3737",
"X c #827C7C",
"o c #BC8B6D",
"O c #CDAE67",
"+ c #B7B3B2",
"@ c #D6B39D",
"# c #EFE9E7",
/* pixels */
"                                ",
"                                ",
"             ...  ..            ",
"             .+X. .#.           ",
"             .##+..#X.          ",
"             .###..##.          ",
"             .#@#+.##X.         ",
"             .#@@#X+#+.         ",
"              .@@#+.#+.         ",
"              .@@@#.X...        ",
"              .o@@#X++##.       ",
"               .o@#X####+.      ",
"           .....+@#######X.     ",
"         ..X+##+X###+#.##+.     ",
"        .+######X+###..+##+.    ",
"       .+##################X.   ",
"      .X##########+########+.   ",
"      .+##########X+#####.OO.   ",
"     .X############X.+####X.    ",
"     .+#############+.X+X..     ",
"    .#X##############+...       ",
"    .#+#########+####+.         ",
"    .++########++###+X.         ",
"     .X##+####+.++++X.          ",
"     .X+#+.++X.X++X...          ",
"      .+++X....+++..X.          ",
"      .X++##X..+###X.+.         ",
"       ..###+. .####.+.         ",
"        .....   ......          ",
"                                ",
"                                ",
"                                "
};
