/* XPM */
static char *result[] = {
/* columns rows colors chars-per-pixel */
"48 32 201 2 ",
"   c black",
".  c #020202",
"X  c gray1",
"o  c #040404",
"O  c gray2",
"+  c #060606",
"@  c #070707",
"#  c gray3",
"$  c #090909",
"%  c gray4",
"&  c gray5",
"*  c #190A12",
"=  c #1A0D14",
"-  c #1C0D15",
";  c #1E0F17",
":  c #111111",
">  c #161616",
",  c gray9",
"<  c #191919",
"1  c gray10",
"2  c #1A1B1A",
"3  c #1B1B1B",
"4  c gray11",
"5  c #1D1D1D",
"6  c #1E1E1E",
"7  c gray12",
"8  c #232323",
"9  c #282828",
"0  c #2A2A2A",
"q  c gray18",
"w  c #313131",
"e  c #323232",
"r  c gray20",
"t  c #333434",
"y  c #343434",
"u  c gray21",
"i  c #393939",
"p  c gray23",
"a  c #3C3C3C",
"s  c gray24",
"d  c #3E3E3E",
"f  c #3F3F3F",
"g  c #4C3E46",
"h  c #67334F",
"j  c #693551",
"k  c #693651",
"l  c #6F3755",
"z  c gray25",
"x  c #444444",
"c  c #494949",
"v  c gray29",
"b  c #4C4C4C",
"n  c gray30",
"m  c gray31",
"M  c #505050",
"N  c #535353",
"B  c #555555",
"V  c #565656",
"C  c #585858",
"Z  c #69525E",
"A  c gray38",
"S  c gray39",
"D  c #656565",
"F  c #666767",
"G  c #676767",
"H  c #686868",
"J  c DimGray",
"K  c #6A6A6A",
"L  c gray42",
"P  c #6C6C6C",
"I  c #6D6D6D",
"U  c gray43",
"Y  c #6E6F6F",
"T  c #6F6F6F",
"R  c gray44",
"E  c #717171",
"W  c #747474",
"Q  c #767676",
"!  c #7B7B7B",
"~  c gray50",
"^  c #807A7D",
"/  c #E071AD",
"(  c #E171AD",
")  c #E173AE",
"_  c #E374AF",
"`  c #E779B4",
"'  c #FF7BC2",
"]  c #808080",
"[  c #848484",
"{  c #888888",
"}  c #8B8B8B",
"|  c #8C8D8D",
" . c #8D8D8D",
".. c #8E8E8E",
"X. c gray56",
"o. c #909090",
"O. c #939393",
"+. c gray58",
"@. c #959696",
"#. c gray59",
"$. c #979797",
"%. c #9D969A",
"&. c #989898",
"*. c gray60",
"=. c gray61",
"-. c #9D9D9D",
";. c #A0A0A0",
":. c #A9A9A9",
">. c #AAAAAA",
",. c gray67",
"<. c #ACACAC",
"1. c #AFAFAF",
"2. c #BDA7B3",
"3. c gray69",
"4. c #B1B1B1",
"5. c #B4B4B4",
"6. c #B6B6B6",
"7. c #B7B7B7",
"8. c gray72",
"9. c gray74",
"0. c gray",
"q. c gray75",
"w. c #C4AEBA",
"e. c #FF81C5",
"r. c #FF81C6",
"t. c #FF82C6",
"y. c #FF83C7",
"u. c #FF83C8",
"i. c #FF84C8",
"p. c #FD8FCA",
"a. c #FF90CC",
"s. c #FF91CC",
"d. c #FF98CF",
"f. c #FF9FD2",
"g. c #EEBED8",
"h. c #FFB4DC",
"j. c #C0C0C0",
"k. c #C1C1C1",
"l. c gray76",
"z. c #C3C3C3",
"x. c gray77",
"c. c #C5C5C5",
"v. c gray79",
"b. c #CACACA",
"n. c #CDCDCD",
"m. c #D0D0D0",
"M. c gray82",
"N. c gray83",
"B. c #D5D5D5",
"V. c #D7D7D7",
"C. c gainsboro",
"Z. c #F2C2DC",
"A. c #FFC5E4",
"S. c #FFC7E5",
"D. c #FFC9E6",
"F. c #FFCAE7",
"G. c #FFCBE7",
"H. c #FFCCE7",
"J. c #FFCAE8",
"K. c #FFCCE8",
"L. c #FFD6EC",
"P. c #FFDFF0",
"I. c gray88",
"U. c #E1E1E1",
"Y. c #E2E2E2",
"T. c gray89",
"R. c #E4E4E4",
"E. c #E4E6E5",
"W. c #E7E7E7",
"Q. c gray91",
"!. c #E9E9E9",
"~. c #EAEAEA",
"^. c #EEEEEE",
"/. c #F3E4EC",
"(. c #FFE9F5",
"). c gray95",
"_. c #F3F3F3",
"`. c #F3F4F3",
"'. c #F4F4F4",
"]. c gray96",
"[. c #F6F6F6",
"{. c gray97",
"}. c #FFF0F8",
"|. c #FFF1F9",
" X c #FFF2FA",
".X c #F8F8F8",
"XX c #F9F9F9",
"oX c #F9FAFA",
"OX c gray98",
"+X c #FBFBFB",
"@X c #FFF8FC",
"#X c #FFFAFD",
"$X c #FFFBFD",
"%X c #FFFBFE",
"&X c gray99",
"*X c #FDFDFD",
"=X c #FFFCFE",
"-X c #FFFDFE",
";X c #FEFEFE",
":X c white",
">X c None",
/* pixels */
">X>X>X>X>X>X>X>X>X>X>X>X>X>X              J :X:X>X>X>X>X>X>X>X>X>X>X>X>X              >X>X>X>X>X",
">X>X>X>X>X>X>X>X>X>X>X>X>X>XX X X X X X   J ;X&X>X>X>X>X>X>X>X>X>X>X>X>XX X X X X X X >X>X>X>X>X",
">X>X>X>X>X>X>X>X>X>X>X>X    Q 4.1.1.1.1.4.{ m M >X>X>X>X>X>X>X>X>X>X  5 ;.3.1.1.1.1.,.i   >X>X>X",
">X>X>X>X>X>X>X>X>X>X>X>X    #.:X:X:X:X:X:X@.    >X>X>X>X>X>X>X>X>X>X  2 E.:X:X:X:X:XOXa     >X>X",
">X>X>X>X>X>X>X>X>X>X>X1 J T x.:XR.O.O.R.:Xw.l k = >X>X>X>X>X>X>X>Xx Y ^ g.F.2.| ,.&XOXO.U B >X>X",
">X>X>X>X>X>X>X>X>X>X  6 T.:X:X:Xl.+ + q.:XK.u._ ;   >X>X>X>X>X    J :X Xa.e.h   d XX:X:X:X$.    ",
">X>X>X>X>X>X>X>X>X>X  6 U.:XI.n.*.+ # j.:XH.t.) ;   >X>X>X>X>X    J :X}.s.t.j   e x.n.).:X#.    ",
">X>X>X>X>X>X>X>X>X>X  6 Y.:XE $ %   $ j.:XH.t.) ;   >X>X>X>X>X    J :X|.s.t.j   X & > x.:X$.    ",
">X>X>X>X>X>X>X>X>X>X  4 B.].L $ %   $ j.:XH.t.) ;   >X>X>X>X>X    S `./.p.t.j       # 8.XX..    ",
">X>X>X>X>X>X>X>X>X>X  + q y  .m.*.+ # j.:XH.t.) ;                 > t g ` i.j     >X>Xw u 7     ",
">X>X>X>X>X>X>X>X>X>X        #.:Xz.# # j.:XG.r.( -                     * / y.j     >X>X          ",
">X>X>X>X>X>X>X>X  m o.o.o.X.M.:Xj.# # j.:X(.D.Z.%.X.o.o.o.o.o.o.o.o.X.%.Z.J.Z     >X>X>X>X>X>X>X",
">X>X>X>X>X>X>X    G :X:X:X:X:X:Xl.o o q.:X:X:X:X:X:X:X:X:X:X:X:X:X:X:X:X:X:XF     >X>X>X>X>X>X>X",
">X>X>X>X>X>X>Xc n &.:X:X:X:Xm.1.&.N V N.:X:X:X:X:X:X:X:X:X:X:X:X:X:X:X:X:X:X&.n c >X>X>X>X>X>X>X",
">X>X        $ 0.:X*X:X:X:X:XK   z '.*X;X:X:X:X:X:X:X:X:X:X:X:X:X:X:X:X:X:X:X*X:X0.$   >X>X>X>X>X",
">X>X4 7 ,   $ j.:X:X:X:X:X:XJ   f {.:X:X:X:X:X:X:X:X:X:X:X:X:X:X:X:X:X:X:X:X:X:Xj.$   >X>X>X>X>X",
"    } Q.:.@ # j.:X:X:X:X:X:XJ   f [.:X:X:X:X:X:X:X:X:X:X:X:X:X:X:X:X:X:X:X:X:X:Xj.$   >X>X>X>X>X",
"    $.:Xl.# # j.:X:X:X:X:X:XJ   f [.:X:X:X:X:X:X:X:X*X&X*X:X:X:X:X:X:X:X&X&X;X:Xj.$   >X>X>X>X>X",
"    #.:Xj.# # j.:X:X:X:X:X:XJ   f [.:X:X:X:X:X:X:X:X&.v ! XX:X:X:X:X:X~.D n 7.:Xj.$   >X>X>X>X>X",
"    &.:Xz.# # j.:X:X:X:X:X:XJ   f [.:X:X:X:X:X:X:X:XH   s +X:X:X:X:X:XR.3   $.:Xz.$   >X>X>X>X>X",
"    G O.P o # j.:X:X:X:X:X:XJ   f [.:X:X:X:X:X).-.o.p   8 } +.R.:XM.o.~ :   B +.P O   >X>X>X>X>X",
">X>X        $ j.:X:X:X:X:X:XJ   f [.:X:X:X:X:XI.<           X q.:X+.                  >X>X>X>X>X",
">X>X>X      $ j.:X:X:X:X:X:XJ   f [.:X:X:X:X:XW.b r >   & e p n.:X<.r q +   7 u 9 .   >X>X>X>X>X",
">X>X>X>X>X  $ j.:X:X:X:X:X:XJ   f [.:X:X:X:X:X*X_._.S   p !.).&X:XoX_.B.4   ..XX6.#   >X>X>X>X>X",
">X>X>X>X>X  $ j.:X:X:X:X:X:XJ   f [.:X:X:X:X:X:X:X:XE + c .X:X#X@X%X:XT.0 % =.:Xk.$   >X>X>X>X>X",
">X>X>X>X>X  $ j.:X:X:X:X:X:XJ   f [.:X:X:X:X:X:X:X:XI.v.V.*X=Xh.d.A.:XXXM.b.!.:Xj.$   >X>X>X>X>X",
">X>X>X>X>X  $ j.:X:X:X:X:X:XG   d XX:X:X:X:X:X:X:X:X:X:X:X:X$Xf.' h.:X:X:X:X:X:Xl.$   >X>X>X>X>X",
">X>X>X>X>X  $ j.:Xx.I ] ^.:X9...{ R W C.:X:X:X:X:X:X:X:X:X:X-XL.S.P.:X:X:X:X>.I A >X>X>X>X>X>X>X",
">X>X>X>X>X  $ z.:X#.  1 R.:X:X:Xc.o o k.:X:X:X:X:X:X:X:X:X:X:X:X:X:X:X:X:X:XG     >X>X>X>X>X>X>X",
">X>X>X>X>X  + [ 5.Q   5 ;.3.1.4.X.# # X.4.1.1.1.1.1.1.1.1.1.1.1.1.1.1.1.1.3.C     >X>X>X>X>X>X>X",
">X>X>X>X>X    . X X >X>XX X X X X >X>XX X X X X X X X X X X X X X X X X X X >X>X>X>X>X>X>X>X>X>X",
">X>X>X>X>X          >X>X          >X>X                                      >X>X>X>X>X>X>X>X>X>X"
};
