/* XPM */
static char *_e138f0735f24c9cb60a74e2d05b2ce8vvlAHUmbgYCKkWnK[] = {
/* columns rows colors chars-per-pixel */
"128 32 63 1 ",
"  c #010101",
". c #070707",
"X c gray3",
"o c #0E0E0E",
"O c #101010",
"+ c gray8",
"@ c gray11",
"# c #232323",
"$ c gray14",
"% c #282828",
"& c #2D2D2D",
"* c #323232",
"= c #353535",
"- c #393939",
"; c gray24",
": c #434343",
"> c gray28",
", c gray29",
"< c #4C4C4C",
"1 c gray32",
"2 c #565656",
"3 c gray35",
"4 c #5B5B5B",
"5 c #606060",
"6 c #656565",
"7 c #6A6A6A",
"8 c #6C6C6C",
"9 c gray45",
"0 c #777777",
"q c gray47",
"w c gray49",
"e c gray51",
"r c #848484",
"t c #888888",
"y c #8D8D8D",
"u c #939393",
"i c #959595",
"p c #9A9A9A",
"a c #9F9F9F",
"s c #A0A0A0",
"d c gray65",
"f c #AAAAAA",
"g c #AEAEAE",
"h c #B2B2B2",
"j c #B4B4B4",
"k c gray72",
"l c gray74",
"z c #C0C0C0",
"x c gray78",
"c c #CBCBCB",
"v c #CDCDCD",
"b c gray82",
"n c gray84",
"m c gray85",
"M c gray87",
"N c gray88",
"B c #E7E7E7",
"V c gray92",
"C c #EFEFEF",
"Z c gray94",
"A c gray97",
"S c gray98",
"D c white",
/* pixels */
"     .                     X  .      .        .     .     .                                       .    . ...   . . . . .      . ",
"  .   . .    .    .   .  XX           .   X .X .. X ..  X      .                               .    .                    X .    ",
" .  X  .                .  .     . X  .  .        .        X                                      .  +>-;;;-;;;-;-;-;;;-:$.   . ",
"      O=**&&&***&*&**&&*&=%      .   o&2,,1,2;X . X1<,<,,1@   .                                     .7SDDDDDDDDDDDDDSDDSDg . .  ",
"  . X 2DDDSDSDDSDDDSDSSDDSj        . .zSDDDDAm  .X&SDDDDDD3X.               eSDSSDSCCDDAS9         X 6DSSDSDDSDSDSSDSSSSDa .   .",
".  . .>SDDDDDDDDDDDDDDDDSDkO      . . jDCDSDDv .X %DASASZD< .               9SDDDVVCASABAt         X 5DSDDDDDDDDDDDDDDDSSd      ",
"  X pjxDSSSDSSSSSSSSSSSS      ..   . .jDDSDSDb  . *DDDDDAD2 .             axvDAZCVSDDVVADvlk       X 6DSDDDDDDDDDDDDDDDDDp.  .  ",
".  .NDSDDDDDDDDDDDDDDDDS     .        jDADDSDx    @SDDSDDD<  .            MDDDZCVDSANCADDDDN       X 3DADDSDDDDDDDDSDDDSDs .    ",
"    nDSDADDCbMnnnmmmmmnB         .   .gSSSDDDM<<2,8DDDDDSD1  .            bDCZCSDSCCASDDDSDN       X 6DSDDSDDDSDSDADDADASs      ",
"    mDDDDSDg   .  .                .  jSDDADDSDDSSDDADADAD< .             vZCBSAZCCDSDSSDADn      .. 8DDASDDSSDDDDSSADSDDf . .. ",
"    mDSDDSDh o  ..           .        lDSDDSDDSDDASDSDDSDS1 . .           cDSSDSCADSSDDDDDSv         @>-CDSDDDSSDDDSDAA2-&      ",
"    nDSDSADk ... .  X       .      .  #&1DSSSSDSADSSDZDn$;+               :3312xDZDDDSBur022        .   BSSDSDDDDSDSSDD#X   X   ",
"    nDDDDADh.    .            .  .  X . @DADSSDSSDDSDSDb     .                 bDDSSADv*.          .   .hclcDDADSDDnjvx+ .   .. ",
"    nDSDADSz@=*&=&=<0;X   ..         .  #xfBDAZDDDSDDcki                       vDSSDSDn ....         ..    @DSDDDAA2    . . X   ",
"    nDDDDCDDDDDDDDDDDk  .    . .    . X  . gSDDSDDSSS;      .                  mDSDSZBz                 .. $SSDDSDD3 ..      .  ",
"    mDDDADSDDSDDDSDVDj X  .   .      .  .  kDSADDDDSD,  .    .                 nDSSCVDb                    @DDDSDSD3 .   . .    ",
"    nDDDDDADSDADSSVCSj               . . O kDDDDDADAD<.o   .   .               nSAVVSDb                  . #DDDDDDD3 .          ",
"    nDSDDADADDSDDADSDk .        .   .      gDASDSDSDD:  .   X                  vABCADDc.                   @DDDDDSD3            ",
"    mDDDSSDAcbMNvbcvNp.               . X3;vSDDDDSSSDe<, .   ..                gCSDDDDc                    #DSDDDSD3 .          ",
"    mDSDDASg @>O.  X            .    X  *DSDSADSDDDSDDDm  .   .                hAASDSDv                  . @DDDDDDD3 .          ",
"    mDSDADAh@        .         .   .. . @DASDDSDDDSDSADxX   .                  sDDSDAAx                  . @DSDDDSD3 .          ",
"    nDDDDADl-       ...              .iMnDDDSDSSSSASDADAxV,   .           fxccfnDZDDDDVssdda               #DDDDDSD3 .          ",
"    mDSDDADc+         .             . jDDADDDDDSDDDSSDSDDS3               MDZDSCADDSDSDDDAAM               #DSDDDDD3            ",
"    nDSDDDDx+*=&%=&=**%-.             jDZDDSDVfhgfkDDSSDAD, .             bDASVCDSSDDSDSSDCc             . @DDDDDSD2 .          ",
"   .bDSSDSASDDDDDDDSDSDS- .. .      . kSSDSSDx    $DDSDADA1 .             bSSDVCDDDDDDSDDZVb               @DDDDSDA5            ",
" .  VDDSAAADDDSDDDDDDDDD%         ..  hDADDADn    &ADDSDDS2  X            mDSSCCDSSDZDDSAVDB             ..@DSSDADD3  .         ",
" .. :;rDZASSSSSSSDSDSSSDkleXX .       jSADSSSv  X %DZAAAAD<..  .          tigDZVDDSDDASVAsty               #SDDDDSD5 .          ",
".   . <SSDDDDDDDDDDDDDDDDDk      .   .kDDSDSDb    =SDDDDSD2                 qDCCDDSDSDVVDt                 +vxlkzlv:.           ",
"..X   >mvvvvvvvvcvvvvvvvcNe.. . .  .  ecgkkjxu  ..@zhjljgz; .               wZnnmmMmvxMCAt                    .     .           ",
"                          .  .     . .X .. X  .         X  .  .                                         .   ...  .. X           ",
" .  . .                   .          . o XX.XX     ..  X .  ..                                             .  .                 ",
"  .   .                  .  X    .  .   .             .    .                                                                    "
};
