/* XPM */
static char *_600408566a243e4f760dc6e14ec8dc94ElEWbrqHkyPgTb3[] = {
/* columns rows colors chars-per-pixel */
"16 16 10 1 ",
"  c None",
". c #3D6B2F",
"X c #4D782F",
"o c #B34844",
"O c #C9514C",
"+ c #D1574E",
"@ c #D65A4F",
"# c #558132",
"$ c #D48633",
"% c #D4A73F",
/* pixels */
"                ",
"                ",
"                ",
"   oo oo        ",
"  o@@o@@o       ",
" o@@O+O@@o      ",
" o@OO%OOoo o    ",
"  o+%$%o@@o@o   ",
" o@OO%Oo@O%@o   ",
" o@@O+O@o%$%    ",
"  o@@o@o@O%@o   ",
"   ooXoo@@o@o   ",
" ....X..oo.o.   ",
" .##.X..X.##.   ",
"  .##X.X.##.    ",
"   ..X.X...     "
};
