/* XPM */
static char *fe1797d306b14b359d73029617c55ddbfb3KcVsT1RY7SWx4[] = {
/* columns rows colors chars-per-pixel */
"32 32 7 1 ",
"  c None",
". c black",
"X c #27170E",
"o c #3C291A",
"O c #793F00",
"+ c #B75800",
"@ c #F4CCA1",
/* pixels */
"                                ",
"                                ",
"                                ",
"                                ",
"                                ",
"                                ",
"                                ",
"                                ",
"                       ..  ..   ",
"    ..                .o. .o.   ",
"   .@@.              .oo..oo.   ",
"  .@@@.              .+@..O@.   ",
" .@@@@+.            .+++++++.   ",
" .@@@+++.           .+++X++X.   ",
" .@@+++++.          .+++X++X.   ",
"  .+++++++.         .+++++++... ",
"   .+++++++.        .++++++++X. ",
"    .+++++++........+++++@@@@.  ",
"     .+++++++++++++++++++@@..   ",
"      .+++++++++++++++++@@@.    ",
"       ..++++++++++++++@@@@.    ",
"         .+++++++++++++@@@.     ",
"         .++++++++@@+++@@@.     ",
"         .+++++@@@@@+++@@O.     ",
"          .+++OOO...++..OO.     ",
"          .++..OO. .++..OO.     ",
"          .oo..XX. .oo..X.      ",
"          .o. .X.  .o. .X.      ",
"          .o. .X.  .o. .X.      ",
"           .   .    .   .       ",
"                                ",
"                                "
};
