/* XPM */
static char *_bba23deeca24544b8b0f8ff29fe50a4p2V62VsUAbSclgIE[] = {
/* columns rows colors chars-per-pixel */
"32 32 166 2 ",
"   c None",
".  c #020600",
"X  c #030A02",
"o  c #080A00",
"O  c #121001",
"+  c #1A1504",
"@  c #14170E",
"#  c #191F16",
"$  c #211806",
"%  c #2A1B05",
"&  c #241601",
"*  c #262C23",
"=  c #2F352F",
"-  c #753802",
";  c #783D00",
":  c #3C423A",
">  c #674C1B",
",  c #414842",
"<  c #4C514C",
"1  c #5F665F",
"2  c #6F746F",
"3  c #873A01",
"4  c #893B00",
"5  c #953C01",
"6  c #9A3D00",
"7  c #8B4000",
"8  c #8E4409",
"9  c #934200",
"0  c #93450B",
"q  c #9A5111",
"w  c #A44700",
"e  c #AF4400",
"r  c #AC4F0A",
"t  c #B54600",
"y  c #BB4C02",
"u  c #B04E09",
"i  c #B54902",
"p  c #BF5206",
"a  c #B3510A",
"s  c #BC5108",
"d  c #A9581B",
"f  c #955D28",
"g  c #91692A",
"h  c #C24C00",
"j  c #CB4E00",
"k  c #CB5201",
"l  c #C4550D",
"z  c #C85408",
"x  c #D55200",
"c  c #DB5501",
"v  c #D45608",
"b  c #D75F11",
"n  c #E15500",
"m  c #E55901",
"M  c #EB5A01",
"N  c #E15E0C",
"B  c #E85F08",
"V  c #F35D02",
"C  c #CD621B",
"Z  c #E6600C",
"A  c #ED620E",
"S  c #EF680F",
"D  c #F26209",
"F  c #EE6412",
"G  c #E76B1B",
"H  c #F16D1E",
"J  c #D37024",
"K  c #DB7E39",
"L  c #E76B20",
"P  c #EF6F21",
"I  c #F16F22",
"U  c #EF7825",
"Y  c #F17023",
"T  c #F37F3A",
"R  c #837A5D",
"E  c #817C67",
"W  c #ED893B",
"Q  c #F08131",
"!  c #F08538",
"~  c #F1883A",
"^  c #84804C",
"/  c #B49559",
"(  c #8A8267",
")  c #9F9E67",
"_  c #959361",
"`  c #918871",
"'  c #A79864",
"]  c #B39A66",
"[  c #A9967E",
"{  c #9FA168",
"}  c #A1A36A",
"|  c #A8A76F",
" . c #AAA771",
".. c #A7AA77",
"X. c #B4AA7F",
"o. c #AEB17B",
"O. c #B1B57C",
"+. c #C2864D",
"@. c #F28A44",
"#. c #F69851",
"$. c #CCA970",
"%. c #D5B471",
"&. c #F9AB68",
"*. c #8A8E8B",
"=. c #8F938E",
"-. c #AA9A85",
";. c #B19C8C",
":. c #BDAE81",
">. c #BCA18E",
",. c #BEB784",
"<. c #B5BB82",
"1. c #A9A897",
"2. c #A6A292",
"3. c #A2A6A3",
"4. c #ABACA8",
"5. c #B8BAB8",
"6. c #DEA781",
"7. c #C6B481",
"8. c #CABD83",
"9. c #D3B780",
"0. c #D7BE86",
"q. c #DDBC85",
"w. c #D8BEA5",
"e. c #BEC797",
"r. c #BEC896",
"t. c #BFC898",
"y. c #C8C088",
"u. c #C3CA8E",
"i. c #D9CC8C",
"p. c #CBCF92",
"a. c #D9C790",
"s. c #CBD397",
"d. c #CED599",
"f. c #D9D79D",
"g. c #D2D29A",
"h. c #E9C78A",
"j. c #E8C487",
"k. c #F2C589",
"l. c #F9C688",
"z. c #FAC989",
"x. c #F5C283",
"c. c #E7D59E",
"v. c #EED39A",
"b. c #C8CAAB",
"n. c #D6DCA1",
"m. c #DCDAA5",
"M. c #CFC4B6",
"N. c #D3CABD",
"B. c #EFDFA8",
"V. c #E5DDA6",
"C. c #FDDDA4",
"Z. c #D7E2A5",
"A. c #D9E4A7",
"S. c #DCE5A8",
"D. c #E3E4AA",
"F. c #EDE3AC",
"G. c #E1E2A7",
"H. c #FCE3AB",
"J. c #F6E4AD",
"K. c #F6EBB3",
"L. c #FDEBB4",
"P. c #FFEFB9",
"I. c #CFCBC0",
"U. c #C4C5C2",
"Y. c #D7D4CB",
"T. c #FDFDFD",
/* pixels */
"                                                                ",
"                                                                ",
"                                $ $ $ @             $ $ $ =     ",
"                                $ y a $ $         $ % c % =     ",
"                                $ / h.] $ $ % $ $ > 9.z.# =     ",
"                                $  .F.x.p % + w j J H.J.= =     ",
"  = @ =                           = ' x.B x k m M U v.@ 1       ",
"  $ = _ = 1                       = @ Q M M M m M S W = w.      ",
"  $ } d.= 1 1                     $ 4 n 9 5 c M y 3 6 n 1       ",
"  $ { A.Z.s.= 1               Y.$ 7 x j + O h V 3 . & x $ 1     ",
"  $ } A.Z.f.u.= 1             I.$ a V v $ + z A 8 X % v @ 1     ",
"  $ { A.Z.s.g r r =           $ o.j.z.k.:.:.k.z.q.X.7.k.8.= @   ",
"  = ..Z.i.%.l x x d M.        $ <.m.K.L.L.L.L.K.B.c.K.K.g.= @   ",
"    1 i.G B m M M c @ 2.        + O.A.D.L.L.L.G.' = d.S.= 1     ",
"    b.1 Z M M m M c @ =         $ ^ <.G.L.L.L.F.y.' f. .=       ",
"    1 = k x M M M c = @ @ @ @ @ @ $ 1 n.F.F.F.F.F.D.7.=         ",
"      N.$ @ m M M M G L L N c c c 6 @ 1 u.t.t.t.t...=           ",
"        [ 1 s x M F H I Y F A F F l +.m.@ m.m.m.m.,.=           ",
"            = a N I I I Y Y I Y I I #.C.L.L.L.L.P.a.=           ",
"              = 8 I I I I I I I I I F @.L.L.L.L.P.w.=           ",
"              1 = I I I I I I I I I F ! H.L.L.L.L.0.=           ",
"              1 6.I I I I I I I I I D A ~ C.P.P.&.C =           ",
"                1 @.Y Y I I I Y Y Y b j N $.7.7.K j =           ",
"                1 = T H I I P Y I Y q ; x 1 = $ 5 t =           ",
"                  = f p M H C 0 @ = = = h =   R 3 e =           ",
"                    $ 9 V = @ @ $ -.` = y =   ( 3 e =           ",
"                    $ 9 V @ >.@ $   1.= h =   ( 3 e =           ",
"                    = - i = ;.= 1   2.= 5 =   E = 3 =           ",
"                    U.@ . 4.=.:     =.. . #   2 . . *           ",
"    T.                : = 5.3.1     3.= = ,   *.= = <           ",
"                                                                ",
"                                                                "
};
