/* XPM */
static char *e3604dbc2ccf4ed1d3669aed7ff2eb8aQChdyco6YvB4w58l[] = {
/* columns rows colors chars-per-pixel */
"32 32 7 1 ",
"  c None",
". c black",
"X c #27170E",
"o c #3C291A",
"O c #793F00",
"+ c #B75800",
"@ c #F4CCA1",
/* pixels */
"               ..  ..           ",
"          .   .o. .o.           ",
"         .X. .oo..oo.           ",
"         .X. .+@..O@.           ",
"         .X..+++++++.           ",
"         .OO.+++X++X.           ",
"         .oO.+++X++X.           ",
"         .oO.+++++++...         ",
"         .oo+++++++++X.         ",
"         .+++++++@@@@.          ",
"         .+++++++@@..           ",
"          .+++++...             ",
"         .X.++++.               ",
"         .X@@+++.               ",
"         .X@@+++.               ",
"         .OO@+++.               ",
"         .oO@++++.              ",
"         .oO@++++.              ",
"         .oo+++++.              ",
"         .+++++++.              ",
"          .+++++++.             ",
"           .++++++.             ",
"            .++++++.            ",
"             ..++++.            ",
"             .++++++.           ",
"             .++++++.           ",
"             .+++++++.          ",
"              .+++++@@.         ",
"               .++@@@@@.        ",
"                .@@@@@@.        ",
"                 .@@@@.         ",
"                  ....          "
};
