/* XPM */
static char *result[] = {
/* columns rows colors chars-per-pixel */
"32 32 189 2 ",
"   c #000200",
".  c #000300",
"X  c #000500",
"o  c #000801",
"O  c #1F1501",
"+  c #201501",
"@  c #391B00",
"#  c #3F1E00",
"$  c #1B241E",
"%  c #312D1A",
"&  c #232C25",
"*  c #2B2823",
"=  c #353524",
"-  c #4E2501",
";  c #5C2700",
":  c #652900",
">  c #682A00",
",  c #613200",
"<  c #6D3200",
"1  c #743201",
"2  c #753600",
"3  c #7D3400",
"4  c #7E3F02",
"5  c #4D503A",
"6  c #644F20",
"7  c #705E2E",
"8  c #705F2F",
"9  c #7E5D29",
"0  c #695E3B",
"q  c #735F3B",
"w  c #813601",
"e  c #833B00",
"r  c #843B00",
"t  c #833C00",
"y  c #863D00",
"u  c #893D00",
"i  c #864001",
"p  c #855015",
"a  c #A24701",
"s  c #AB4100",
"d  c #AE4300",
"f  c #B24500",
"g  c #B44600",
"h  c #B54600",
"j  c #B64700",
"k  c #B84700",
"l  c #B94900",
"z  c #B84A00",
"x  c #AD5C19",
"c  c #946B3E",
"v  c #986C3D",
"b  c #9B6E3F",
"n  c #AC6E31",
"m  c #C84E00",
"M  c #D45000",
"N  c #D55000",
"B  c #D55301",
"V  c #D15305",
"C  c #D85501",
"Z  c #DC5400",
"A  c #DD5500",
"S  c #DD5601",
"D  c #DE5701",
"F  c #D85704",
"G  c #D55806",
"H  c #D45807",
"J  c #DC5A04",
"K  c #E15703",
"L  c #E85400",
"P  c #EE5600",
"I  c #E65900",
"U  c #E75A01",
"Y  c #E95800",
"T  c #E95900",
"R  c #EA5800",
"E  c #EB5900",
"W  c #E85A00",
"Q  c #E95A01",
"!  c #E85B01",
"~  c #EA5A01",
"^  c #EA5B01",
"/  c #DA6A1E",
"(  c #F06513",
")  c #EF7826",
"_  c #9F7B44",
"`  c #837E55",
"'  c #86795D",
"]  c #877A5D",
"[  c #857B5E",
"{  c #A37C40",
"}  c #E68239",
"|  c #F18132",
" . c #87824D",
".. c #BC8144",
"X. c #9F9C64",
"o. c #989079",
"O. c #A69D6B",
"+. c #ACA46F",
"@. c #A5A972",
"#. c #B9AB76",
"$. c #C4995B",
"%. c #C6985C",
"&. c #DD9956",
"*. c #E28C44",
"=. c #E78E44",
"-. c #EA8B41",
";. c #F18E44",
":. c #F29143",
">. c #F49043",
",. c #F5984C",
"<. c #F3A35D",
"1. c #DDAE71",
"2. c #F5A760",
"3. c #FAB674",
"4. c #B2B582",
"5. c #BDBD84",
"6. c #B1AB9A",
"7. c #B6AFA0",
"8. c #B9B4A2",
"9. c #BEC58B",
"0. c #BFC58B",
"q. c #CCC38C",
"w. c #C3C591",
"e. c #CFCB92",
"r. c #C5CB9A",
"t. c #C6CD9A",
"y. c #C6CD9C",
"u. c #DECE99",
"i. c #CFD19E",
"p. c #CDD59D",
"a. c #CED79C",
"s. c #D0D19F",
"d. c #D0D29F",
"f. c #DAD89E",
"g. c #E2C68E",
"h. c #E3CA92",
"j. c #E6D29C",
"k. c #E4D59F",
"l. c #FCD397",
"z. c #F5D299",
"x. c #D5DDA1",
"c. c #EEDCA5",
"v. c #F0DBA3",
"b. c #DCE4A7",
"n. c #E2E3A9",
"m. c #E6E3AA",
"M. c #E6E5AA",
"N. c #E7E5AB",
"B. c #E7E6AB",
"V. c #E3E6AC",
"C. c #E8E7AC",
"Z. c #F5E4AC",
"A. c #F6E6AD",
"S. c #F8E3AA",
"D. c #FCE3AB",
"F. c #F8E6AF",
"G. c #F1E8AF",
"H. c #F7E6B0",
"J. c #F7E7B1",
"K. c #F7E7B2",
"L. c #FAE7B0",
"P. c #FAE7B1",
"I. c #F4E8B0",
"U. c #F5E8B0",
"Y. c #F7E9B1",
"T. c #FAE8B1",
"R. c #FBE8B1",
"E. c #F8EAB1",
"W. c #F9E9B2",
"Q. c #F8E9B3",
"!. c #FBE8B2",
"~. c #FAE9B2",
"^. c #FDE9B2",
"/. c #FCEAB3",
"(. c #FDEAB3",
"). c #FEEAB3",
"_. c #F9EAB4",
"`. c #FDEBB4",
"'. c #FDEBB5",
"]. c #FDECB6",
"[. c #FEECB6",
"{. c #FFEDB7",
"}. c #FFEEB7",
"|. c #FFEFB7",
" X c #FFEEB8",
".X c #FFF0B9",
"XX c #FBFCFB",
"oX c #FCFCFD",
"OX c None",
/* pixels */
"OXOXOXOXOXOXOXOXOXOXOXOXOXOXOXOXOXOXOXOXOXOXOXOXOXOXOXOXOXOXOXOX",
"OXOXOXOXOXOXOXOXOXOXOXOXOXOXOXOXOXOXOXOXOXOXOXOXOXOXOXOXOXOXOXOX",
"OXOXOXOXOXOXOXOXOXo X X OXOXOXOXOXOXOX$ o o * OXOXOXOXOXOXoXOXOX",
"OXOXOXOXOXOXOXOXOXX d < X $ OXOXOXOXo X s < $ OXOXOXOXOXOXOXOXOX",
"OXOXOXOXOXOXOXOXOXX } ..6 X $ ' ] o X _ -.p $ OXOXOXOXOXOXOXOXOX",
"OXOXOXOXOXOXOXOXOXX j.|.%.y t X X , n S.C.$ o OXOXOXOXOXOXOXOXOX",
"OXOXOXOXOXOXOXOXOX$ * k.2.Y I a i z | v.+.$ $ OXOXOXOXOXOXOXOXOX",
"OXOXOXOXOXOXOXOXOXOXo $.,.T W Q ~ R ) 1.X 7.OXOXOXOXOXOXOXOXOXOX",
"OXOXOXOXOXOXOXOXOX$ / J G C U ! S B K H X $ OXOXOXOXOXOXOXOXOXOX",
"OXOXOXOXOXOXOXOXOXX F 3 O - D ^ 1 + w A 4 o [ OXOXOXOXOXOXOXOXOX",
"OXOXOXOXOXOXOXOXOXX N : . X Z E ;   > P L 2 $ OXOXOXOXOXOXOXOXOX",
"OXOXOXOXOXOXXXOX$ o *.v o q =.:.c 5 b >.;.{ ` 6.OXOXOXOXOXOXOXOX",
"OXOXOXOXOXOXOXX X p.Y.T.F.L.).).R.P.!.^.~.V.@.X OXOXOXOXOXOXOXOX",
"OXOXOXOXOXOXOXOX$  .f.N.M.e.o q.G.(.W.m.n.X.$ 8.OXOXOXOXOXOXOXOX",
"OXOXOXOXOXOXOXOXOXo 9.x.b.5.X $ B./.U.x.a.$ $ OXOXOXOXOXOXOXOXOX",
"OXOXOXOXOXOXOXOXOXOXo #.E.A.c.Z.W./.I.0.o OXOXOXOXOXOXOXOXOXOXOX",
"OXOXOXOXOXOXOXOXOXOXOX* O.s.s.i.i.d.w.$ $ OXOXOXOXOXOXOXOXOXOXOX",
"OXOXOXOXOXOXOXOXOXOXOXOX* y.r.r.r.t.4.$ OXOXOXOXOXOXOXOXOXOXOXOX",
"OXOXOXOXOXOXOXOXOXOXOXOX* _.J.K.K.Q.u.* OXOXOXOXOXOXOXOXOXOXOXOX",
"OXOXOXOXOXOXOXOXOXOXOXOX* }.`.'.'.{.h.* OXOXOXOXOXOXOXOXOXOXOXOX",
"OXOXOXOXOXOXOXOXOXOXOXOX+ .X'.`.`. Xg.* OXOXOXOXOXOXOXOXOXOXOXOX",
"OXOXOXOXOXOXOXOXOXOXOXOX+ 3.D.].[.l.&.* OXOXOXOXOXOXOXOXOXOXOXOX",
"OXOXOXOXOXOXOXOXOXOXOXOX+ ( z.H.K.<.M * OXOXOXOXOXOXOXOXOXOXOXOX",
"OXOXOXOXOXOXOXOXOXOXOXOX+ V 9 7 8 x m * OXOXOXOXOXOXOXOXOXOXOXOX",
"OXOXOXOXOXOXOXOXOXOXOXOX+ k * o.0 u l * OXOXOXOXOXOXOXOXOXOXOXOX",
"OXOXOXOXOXOXOXOXOXOXOXOX+ k * OXOXe j $ OXOXOXOXOXOXOXOXOXOXOXOX",
"OXOXOXOXOXOXOXOXOXOXOXOX+ j * OXOXr h $ OXOXOXOXOXOXOXOXOXOXOXOX",
"OXOXOXOXOXOXOXOXOXOXOXOXo g * OXOXo f $ OXOXOXOXOXOXOXOXOXOXOXOX",
"OXOXOXOXOXOXOXOXOXOXOXOXo # % OXOXo @ = OXOXOXOXOXOXOXOXOXOXOXOX",
"OXOXOXOXOXOXOXOXOXOXOXOXX o $ OXOXX o & OXOXOXOXOXOXOXOXOXOXOXOX",
"OXOXOXOXOXOXOXOXOXOXOXOX* * * OXOX* * * OXOXOXOXOXOXOXOXOXOXOXOX",
"OXOXOXOXOXOXOXOXOXOXOXOXOXOXOXOXOXOXOXOXOXOXOXOXOXOXOXOXOXOXOXOX"
};
