/* XPM */
static char *_aa9fc03a8ba492bc2df72aba714a16ecxx5hPvci0QHdXnA[] = {
/* columns rows colors chars-per-pixel */
"32 32 7 1 ",
"  c None",
". c black",
"X c #27170E",
"o c #3C291A",
"O c #793F00",
"+ c #B75800",
"@ c #F4CCA1",
/* pixels */
"                  ....          ",
"                 .@@@@.         ",
"                .@@@@@@.        ",
"               .++@@@@@.        ",
"              .+++++@@.         ",
"             .+++++++.          ",
"             .++++++.           ",
"             .++++++.           ",
"             ..++++.            ",
"            .++++++.            ",
"           .++++++.             ",
"          .+++++++.             ",
"         .+++++++.              ",
"         .oo+++++.              ",
"         .oO@++++.              ",
"         .oO@++++.              ",
"         .OO@+++.               ",
"         .X@@+++.               ",
"         .X@@+++.               ",
"         .X.++++.               ",
"          .+++++...             ",
"         .+++++++@@..           ",
"         .+++++++@@@@.          ",
"         .oo+++++++++X.         ",
"         .oO.+++++++...         ",
"         .oO.+++X++X.           ",
"         .OO.+++X++X.           ",
"         .X..+++++++.           ",
"         .X. .+@..O@.           ",
"         .X. .oo..oo.           ",
"          .   .o. .o.           ",
"               ..  ..           "
};
