/* XPM */
static char *_12b58c0d25041b88dedbc168f9a9549viXD5Q7tVkpQ0t04[] = {
/* columns rows colors chars-per-pixel */
"32 32 149 2 ",
"   c None",
".  c black",
"X  c #361200",
"o  c #252627",
"O  c #343331",
"+  c #4F3000",
"@  c #503000",
"#  c #652500",
"$  c #633100",
"%  c #623200",
"&  c #633200",
"*  c #643100",
"=  c #603400",
"-  c #6B3400",
";  c #6F3700",
":  c #623A06",
">  c #683B05",
",  c #7B3300",
"<  c #7C3300",
"1  c #7D3400",
"2  c #444443",
"3  c #616263",
"4  c #853700",
"5  c #883700",
"6  c #883800",
"7  c #883900",
"8  c #893A00",
"9  c #8E3B00",
"0  c #913A00",
"q  c #953C00",
"w  c #9B3C00",
"e  c #9B3E02",
"r  c #9C3F00",
"t  c #A03E00",
"y  c #A13F00",
"u  c #A03F03",
"i  c #89470C",
"p  c #89480C",
"a  c #88490F",
"s  c #8A490E",
"d  c #8A490F",
"f  c #8C490D",
"g  c #904100",
"h  c #934105",
"j  c #984202",
"k  c #9B4302",
"l  c #9F4000",
"z  c #9D4802",
"x  c #9F5218",
"c  c #A34000",
"v  c #A74100",
"b  c #A54502",
"n  c #A74703",
"m  c #A34104",
"M  c #A94100",
"N  c #AC4200",
"B  c #AC4300",
"V  c #A84400",
"C  c #AA4A00",
"Z  c #AC4A00",
"A  c #AD4A00",
"S  c #AC4C02",
"D  c #AA4C04",
"F  c #A44C0E",
"G  c #B14400",
"H  c #B54400",
"J  c #B34C00",
"K  c #BB4A02",
"L  c #B84D00",
"P  c #BD4E00",
"I  c #BF4F00",
"U  c #BB4F0B",
"Y  c #AC5313",
"T  c #BB5914",
"R  c #BB5915",
"E  c #BD5B16",
"W  c #BC5A18",
"Q  c #BF762D",
"!  c #C64A00",
"~  c #C74F00",
"^  c #C54F07",
"/  c #C84B00",
"(  c #CD4A00",
")  c #C94D02",
"_  c #CA4D02",
"`  c #CB4E02",
"'  c #CD4F03",
"]  c #DF4F00",
"[  c #CC5300",
"{  c #CD5105",
"}  c #C95D0D",
"|  c #D85500",
" . c #D35408",
".. c #D25409",
"X. c #D35509",
"o. c #CA5813",
"O. c #D05D13",
"+. c #DD5D10",
"@. c #DF5F12",
"#. c #E45200",
"$. c #E95200",
"%. c #E15800",
"&. c #E55900",
"*. c #EB5900",
"=. c #E85A00",
"-. c #E95A00",
";. c #EB5B00",
":. c #ED5B00",
">. c #ED5F07",
",. c #F75600",
"<. c #C5601B",
"1. c #CA6019",
"2. c #D76216",
"3. c #D1631B",
"4. c #D76319",
"5. c #D5661D",
"6. c #DD641B",
"7. c #E16216",
"8. c #E26316",
"9. c #E36317",
"0. c #E1661C",
"q. c #E6691E",
"w. c #E76B1F",
"e. c #EA691C",
"r. c #EB6A1D",
"t. c #F06917",
"y. c #F06B1A",
"u. c #E16A20",
"i. c #EF6F22",
"p. c #F06D20",
"a. c #F06F22",
"s. c #F16F22",
"d. c #F06F23",
"f. c #F17023",
"g. c #F27023",
"h. c #F37123",
"j. c #F47123",
"k. c #F27124",
"l. c #F37124",
"z. c #F47124",
"x. c #918E58",
"c. c #DEB168",
"v. c #CFD598",
"b. c #D0D99C",
"n. c #D6E0A2",
"m. c #FCFCFD",
"M. c #FCFDFD",
"N. c #FDFDFD",
"B. c white",
/* pixels */
"                                                                ",
"                                                                ",
"                                                                ",
"                        o             o                         ",
"                    O . o             . o O                     ",
"                    o 5 x o         o j r o                     ",
"                  o U $.H o         o ] ,.o                     ",
"                  . ( 9 . o o o o o . ; #.o                     ",
"                  . ^ F a a p i i a d f n o                     ",
"                  . W p.r.r.e.e.e.r.r.4.. .                     ",
"                  o E +.{ / / / ' / / K .                       ",
"                  o n ' { 9.9.8.9.9.9.O..                       ",
"                  o l / ..f.f.l.f.f.j.5.o                       ",
"                  O k ! ..i.f.f.f.f.f.1.o                       ",
"                    o N ..i.f.f.f.f.j.3.O                       ",
"                    O N  .i.f.f.f.f.j.<.O                       ",
"                    O H 2.i.f.f.f.f.z.T O                       ",
"                    O A 9.q.w.f.f.f.z.T .                       ",
"                    o @ > : D t.f.f.z.T .                       ",
"                  O z P P ~ | >.y.f.w.h O                       ",
"                O . { :.%.J A A 2.f.o.< O                       ",
"              . o S =.&.L . + @ Y 6.m , O                       ",
"              . g =.=.[ O 6 0 0 e u e < O                       ",
"              O Q :.C O . & * * & - 4 O                         ",
"            . x.c.} O . 6 . O O O o 6 O                         ",
"            O b.v.O . q M O       O M O                         ",
"          . . n.O . o & c .       O M .                         ",
"          . . O O     o c .       O M .                         ",
"            . o       O u .       O N .                         ",
"                      O X O       o # o                         ",
"                      o . 3       O . 2                         ",
"                                                                "
};
