/* XPM */
static char *_cbc4b8a93ec4578f765336e738bd4b9DMoo0bKvSBz8k7eF[] = {
/* columns rows colors chars-per-pixel */
"32 32 7 1 ",
"  c None",
". c black",
"X c #27170E",
"o c #3C291A",
"O c #793F00",
"+ c #B75800",
"@ c #F4CCA1",
/* pixels */
"                                ",
"                                ",
"                                ",
"                                ",
"                                ",
"                                ",
"                                ",
"                                ",
"   ..  ..                       ",
"   .o. .o.                ..    ",
"   .oo..oo.              .@@.   ",
"   .@O..@+.              .@@@.  ",
"   .+++++++.            .+@@@@. ",
"   .X++X+++.           .+++@@@. ",
"   .X++X+++.          .+++++@@. ",
" ...+++++++.         .+++++++.  ",
" .X++++++++.        .+++++++.   ",
"  .@@@@+++++........+++++++.    ",
"   ..@@+++++++++++++++++++.     ",
"    .@@@+++++++++++++++++.      ",
"    .@@@@++++++++++++++..       ",
"     .@@@+++++++++++++.         ",
"     .@@@+++@@++++++++.         ",
"     .O@@+++@@@@@+++++.         ",
"     .OO..++...OOO+++.          ",
"     .OO..++. .OO..++.          ",
"      .X..oo. .XX..oo.          ",
"      .X. .o.  .X. .o.          ",
"      .X. .o.  .X. .o.          ",
"       .   .    .   .           ",
"                                ",
"                                "
};
