/* XPM */
static char *b3c81838d0154663dbe79cc2f112f37aLLSQmYhFLQPTUDfb[] = {
/* columns rows colors chars-per-pixel */
"32 32 166 2 ",
"   c None",
".  c #020600",
"X  c #030A02",
"o  c #080A00",
"O  c #121001",
"+  c #1A1504",
"@  c #14170E",
"#  c #191F16",
"$  c #211806",
"%  c #2A1B05",
"&  c #241601",
"*  c #262C23",
"=  c #2F352F",
"-  c #753802",
";  c #783D00",
":  c #3C423A",
">  c #674C1B",
",  c #414842",
"<  c #4C514C",
"1  c #5F665F",
"2  c #6F746F",
"3  c #873A01",
"4  c #893B00",
"5  c #953C01",
"6  c #9A3D00",
"7  c #8B4000",
"8  c #8E4409",
"9  c #934200",
"0  c #93450B",
"q  c #9A5111",
"w  c #A44700",
"e  c #AF4400",
"r  c #AC4F0A",
"t  c #B54600",
"y  c #BB4C02",
"u  c #B04E09",
"i  c #B54902",
"p  c #BF5206",
"a  c #B3510A",
"s  c #BC5108",
"d  c #A9581B",
"f  c #955D28",
"g  c #91692A",
"h  c #C24C00",
"j  c #CB4E00",
"k  c #CB5201",
"l  c #C4550D",
"z  c #C85408",
"x  c #D55200",
"c  c #DB5501",
"v  c #D45608",
"b  c #D75F11",
"n  c #E15500",
"m  c #E55901",
"M  c #EB5A01",
"N  c #E15E0C",
"B  c #E85F08",
"V  c #F35D02",
"C  c #CD621B",
"Z  c #E6600C",
"A  c #ED620E",
"S  c #EF680F",
"D  c #F26209",
"F  c #EE6412",
"G  c #E76B1B",
"H  c #F16D1E",
"J  c #D37024",
"K  c #DB7E39",
"L  c #E76B20",
"P  c #EF6F21",
"I  c #F16F22",
"U  c #EF7825",
"Y  c #F17023",
"T  c #F37F3A",
"R  c #837A5D",
"E  c #817C67",
"W  c #ED893B",
"Q  c #F08131",
"!  c #F08538",
"~  c #F1883A",
"^  c #84804C",
"/  c #B49559",
"(  c #8A8267",
")  c #9F9E67",
"_  c #959361",
"`  c #918871",
"'  c #A79864",
"]  c #B39A66",
"[  c #A9967E",
"{  c #9FA168",
"}  c #A1A36A",
"|  c #A8A76F",
" . c #AAA771",
".. c #A7AA77",
"X. c #B4AA7F",
"o. c #AEB17B",
"O. c #B1B57C",
"+. c #C2864D",
"@. c #F28A44",
"#. c #F69851",
"$. c #CCA970",
"%. c #D5B471",
"&. c #F9AB68",
"*. c #8A8E8B",
"=. c #8F938E",
"-. c #AA9A85",
";. c #B19C8C",
":. c #BDAE81",
">. c #BCA18E",
",. c #BEB784",
"<. c #B5BB82",
"1. c #A9A897",
"2. c #A6A292",
"3. c #A2A6A3",
"4. c #ABACA8",
"5. c #B8BAB8",
"6. c #DEA781",
"7. c #C6B481",
"8. c #CABD83",
"9. c #D3B780",
"0. c #D7BE86",
"q. c #DDBC85",
"w. c #D8BEA5",
"e. c #BEC797",
"r. c #BEC896",
"t. c #BFC898",
"y. c #C8C088",
"u. c #C3CA8E",
"i. c #D9CC8C",
"p. c #CBCF92",
"a. c #D9C790",
"s. c #CBD397",
"d. c #CED599",
"f. c #D9D79D",
"g. c #D2D29A",
"h. c #E9C78A",
"j. c #E8C487",
"k. c #F2C589",
"l. c #F9C688",
"z. c #FAC989",
"x. c #F5C283",
"c. c #E7D59E",
"v. c #EED39A",
"b. c #C8CAAB",
"n. c #D6DCA1",
"m. c #DCDAA5",
"M. c #CFC4B6",
"N. c #D3CABD",
"B. c #EFDFA8",
"V. c #E5DDA6",
"C. c #FDDDA4",
"Z. c #D7E2A5",
"A. c #D9E4A7",
"S. c #DCE5A8",
"D. c #E3E4AA",
"F. c #EDE3AC",
"G. c #E1E2A7",
"H. c #FCE3AB",
"J. c #F6E4AD",
"K. c #F6EBB3",
"L. c #FDEBB4",
"P. c #FFEFB9",
"I. c #CFCBC0",
"U. c #C4C5C2",
"Y. c #D7D4CB",
"T. c #FDFDFD",
/* pixels */
"                                                                ",
"                                                                ",
"    = $ $ $             @ $ $ $                                 ",
"    = % c % $         $ $ u y $                                 ",
"    = @ z.9.> $ $ % $ $ ] h./ $                                 ",
"    = = J.H.J j w + % l x.K. .$                                 ",
"      1 @ v.U M n k k B x.' =                           = @ =   ",
"      w.= W F M M M M M Q @ =                       1 = _ = $   ",
"      1 m 6 3 h M c 5 5 n 4 $                     1 1 = s.} $   ",
"    1 $ x & . 3 V h O + k x 7 $ Y.              1 = s.Z.Z.} $   ",
"    1 @ v % X 8 A z + $ k D a $ I.            1 = u.n.Z.A.} $   ",
"  @ = 8.h.:.:.q.z.k.:.:.k.z.j.o.$           = r r g s.Z.A.} $   ",
"  @ = g.K.K.c.B.K.L.L.L.K.K.V.O.$         M.d x c l %.i.n...=   ",
"    1 = S.d.= ) D.K.L.L.D.S.O.$         2.@ c M m m Z G i.1     ",
"      =  .f.' y.F.L.L.L.G.<.^ $         = @ c M M M M Z 1 b.    ",
"        = 7.B.F.F.F.F.F.f.1 $ @ @ @ @ @ @ = c M M m c k = 1     ",
"          = ..u.t.t.t.u.1 @ 6 c c c N G G G M M M m @ $ N.      ",
"          = ,.m.m.m.m.@ m.+.l A F A F Y I H A M x s 1 -.        ",
"          = a.P.L.L.L.L.C.#.I I Y Y Y Y I I I N u =             ",
"          = a.P.L.L.L.L.@.F I I I I Y Y I I I 8 =               ",
"          = 0.L.L.L.L.H.! A I I I I I I I I I = 1               ",
"          = C &.P.P.C.@.A F I I I I I I I I I 6.1               ",
"          = h K 7.7.$.N j b I Y Y I I I I Y @.1                 ",
"          = t 5 $ = 1 x ; q Y P I I I I I T = 1                 ",
"          = e 3 R   = h = = = @ 0 C H B y f =                   ",
"          = e 3 (   = h = ` -.$ @ @ = V 9 $                     ",
"          = i 3 (   = h = 1.  $ @ >.@ V 9 $                     ",
"          = 3 = E   = 5 = 2.  1 = ;.= i - =                     ",
"          * X . 2   # . . =.    : =.4.o @ U.                    ",
"          < = = *.  , = = 3.    1 3.5.= :                 T.    ",
"                                                                ",
"                                                                "
};
