/* XPM */
static char *ezgif_com_resize__11_1680129409[] = {
/* columns rows colors chars-per-pixel */
"64 32 256 2 ",
"   c black",
".  c #010101",
"X  c #020202",
"o  c gray1",
"O  c #040404",
"+  c gray2",
"@  c #060606",
"#  c #070707",
"$  c gray3",
"%  c #090909",
"&  c gray4",
"*  c #0B0B0B",
"=  c #0C0C0C",
"-  c gray5",
";  c #0E0E0E",
":  c gray6",
">  c #101010",
",  c #111111",
"<  c gray7",
"1  c #131313",
"2  c gray8",
"3  c #151515",
"4  c #161616",
"5  c gray9",
"6  c #181818",
"7  c #191919",
"8  c gray10",
"9  c #1B1B1B",
"0  c gray11",
"q  c #1D1D1D",
"w  c #1E1E1E",
"e  c gray12",
"r  c #202020",
"t  c gray13",
"y  c #222222",
"u  c #232323",
"i  c gray14",
"p  c #252525",
"a  c gray15",
"s  c #272727",
"d  c #282828",
"f  c gray16",
"g  c #2A2A2A",
"h  c gray17",
"j  c #2C2C2C",
"k  c #2D2D2D",
"l  c gray18",
"z  c #2F2F2F",
"x  c gray19",
"c  c #313131",
"v  c #323232",
"b  c gray20",
"n  c #343434",
"m  c #353535",
"M  c gray21",
"N  c #373737",
"B  c gray22",
"V  c #393939",
"C  c #3A3A3A",
"Z  c gray23",
"A  c #3C3C3C",
"S  c gray24",
"D  c #3E3E3E",
"F  c #3F3F3F",
"G  c gray25",
"H  c #414141",
"J  c gray26",
"K  c #434343",
"L  c #444444",
"P  c gray27",
"I  c #464646",
"U  c gray28",
"Y  c #484848",
"T  c #494949",
"R  c gray29",
"E  c #4B4B4B",
"W  c #4C4C4C",
"Q  c gray30",
"!  c #4E4E4E",
"~  c gray31",
"^  c #505050",
"/  c #515151",
"(  c gray32",
")  c #535353",
"_  c gray33",
"`  c #555555",
"'  c #565656",
"]  c gray34",
"[  c #585858",
"{  c gray35",
"}  c #5A5A5A",
"|  c #5B5B5B",
" . c gray36",
".. c #5D5D5D",
"X. c gray37",
"o. c #5F5F5F",
"O. c #606060",
"+. c gray38",
"@. c #626262",
"#. c gray39",
"$. c #646464",
"%. c #656565",
"&. c gray40",
"*. c #676767",
"=. c #686868",
"-. c DimGray",
";. c #6A6A6A",
":. c gray42",
">. c #6C6C6C",
",. c #6D6D6D",
"<. c gray43",
"1. c #6F6F6F",
"2. c gray44",
"3. c #717171",
"4. c #727272",
"5. c gray45",
"6. c #747474",
"7. c gray46",
"8. c #767676",
"9. c #777777",
"0. c gray47",
"q. c #797979",
"w. c gray48",
"e. c #7B7B7B",
"r. c #7C7C7C",
"t. c gray49",
"y. c #7E7E7E",
"u. c gray50",
"i. c #808080",
"p. c #818181",
"a. c gray51",
"s. c #838383",
"d. c #848484",
"f. c gray52",
"g. c #868686",
"h. c gray53",
"j. c #888888",
"k. c #898989",
"l. c gray54",
"z. c #8B8B8B",
"x. c gray55",
"c. c #8D8D8D",
"v. c #8E8E8E",
"b. c gray56",
"n. c #909090",
"m. c gray57",
"M. c #929292",
"N. c #939393",
"B. c gray58",
"V. c #959595",
"C. c gray59",
"Z. c #979797",
"A. c #989898",
"S. c gray60",
"D. c #9A9A9A",
"F. c #9B9B9B",
"G. c gray61",
"H. c #9D9D9D",
"J. c gray62",
"K. c #9F9F9F",
"L. c #A0A0A0",
"P. c gray63",
"I. c #A2A2A2",
"U. c gray64",
"Y. c #A4A4A4",
"T. c #A5A5A5",
"R. c gray65",
"E. c #A7A7A7",
"W. c gray66",
"Q. c #A9A9A9",
"!. c #AAAAAA",
"~. c gray67",
"^. c #ACACAC",
"/. c gray68",
"(. c #AEAEAE",
"). c #AFAFAF",
"_. c gray69",
"`. c #B1B1B1",
"'. c #B2B2B2",
"]. c gray70",
"[. c #B4B4B4",
"{. c gray71",
"}. c #B6B6B6",
"|. c #B7B7B7",
" X c gray72",
".X c #B9B9B9",
"XX c gray73",
"oX c #BBBBBB",
"OX c #BCBCBC",
"+X c gray74",
"@X c gray",
"#X c gray75",
"$X c #C0C0C0",
"%X c #C1C1C1",
"&X c gray76",
"*X c #C3C3C3",
"=X c gray77",
"-X c #C5C5C5",
";X c #C6C6C6",
":X c gray78",
">X c #C8C8C8",
",X c gray79",
"<X c #CACACA",
"1X c #CBCBCB",
"2X c gray80",
"3X c #CDCDCD",
"4X c #CECECE",
"5X c gray81",
"6X c #D0D0D0",
"7X c gray82",
"8X c #D2D2D2",
"9X c LightGray",
"0X c gray83",
"qX c #D5D5D5",
"wX c gray84",
"eX c #D7D7D7",
"rX c #D8D8D8",
"tX c gray85",
"yX c #DADADA",
"uX c gray86",
"iX c gainsboro",
"pX c #DDDDDD",
"aX c gray87",
"sX c #DFDFDF",
"dX c gray88",
"fX c #E1E1E1",
"gX c #E2E2E2",
"hX c gray89",
"jX c #E4E4E4",
"kX c gray90",
"lX c #E6E6E6",
"zX c #E7E7E7",
"xX c gray91",
"cX c #E9E9E9",
"vX c #EAEAEA",
"bX c gray92",
"nX c #ECECEC",
"mX c gray93",
"MX c #EEEEEE",
"NX c #EFEFEF",
"BX c gray94",
"VX c #F1F1F1",
"CX c gray95",
"ZX c #F3F3F3",
"AX c #F4F4F4",
"SX c gray96",
"DX c #F6F6F6",
"FX c gray97",
"GX c #F8F8F8",
"HX c #F9F9F9",
"JX c gray98",
"KX c #FBFBFB",
"LX c gray99",
"PX c #FDFDFD",
"IX c #FEFEFE",
"UX c white",
/* pixels */
"  X       . . X         o X   .   .   X       X   o     X       . . .       X   .   . .   .     o   X .   O     X   X           ",
"  .   R n.h.k.j.l.x.v.-.+     .   . X     J l.l.l.z.k . . o       + o.M.c.>.*     X n c.z.f.u X .   o    .h.v.x.x.z.k.g.v.6.& O ",
". X H `.UXUXUXUXLXUXUXrXO.- . X       X C ~.UXIXPXUXG.b     .   X $ {.IXUXtXO.$   M P.PXUXCXL     O $ E ;XUXUXLXUXHXUXUXxXf.;   ",
"  # _.UXLXBX<X;X3XkXIXUXdXy     O   + f '.UXUXUXUXKXUXD.u X O     @ [.LXUXUXbX` b T.UXUXUXZXA .     > =XUXUXcX1X>X1X:X,Xg.# o   ",
"  # '.KXUX2Xw ; & f.lXlX<X0       o ; +XJXLXFXhXdXKXIXJXR.$   X   $ }.PXUXUXKXVXAXSXUXKXPXAXH   O o - >XPXIX}.3 = ; * , -   o   ",
". @ (.UXIX=X> . X 4 i i y %   . .   ; &XUXUX$Xf m 4XIXUX).o       # '.UXIXUXPXUXPXUXUXLXUXVXF .     < -XUXUX[.: % * % @ .     o ",
"X @ ~.UXPX<X3     .   +       .     , -XLXUX{.  = <XUXIX~.o o   o O [.PXUXUXUXIXIXUXUXIXUXNXL   X   > :XUXUXvX[.[. XXX[ . .     ",
"  O '.UXLX1X; + =.n.M.v.y.3     .   : -XUXPXaXm.A.lXPXUX).O       $ `.UXUXLXUXUXUXUXKXUXUXVXG     O > -XUXPXUXUXUXPXUXd.    X   ",
"  @ _.PXUX-X1 $ oXIXUXUXkXy       X : ;XIXPXUXUXPXUXIXPX).X o   X o [.LXUXIXPXUXUXKXUXIXIXCXD   . X * >XIXPXgXH.G.F.P.! . .   . ",
". # (.IXUX:X> + v.=XeXUXgXr   O X   = *XUXUXbX%X;XBXIXUX'..   O   * ].UXUXVX3XAXPXiXtXIXUXNXI       5 &XIXUX).#   .             ",
"  % }.PXUX5Xg e p f e.UXgXt o     X , &XIXUX[.5 r 1XUXFX_.%       @ }.FXUX:Xj 4XHX-.-.UXLXDXD     . : >XPXPX}.u e 0 e 8 8       ",
"O O W.UXPXAXiXiXaXrXxXKXuXi   .     - >XPXPXOX  : >XUXUX(.  + X . + [.UXUX-X1 4.&X4 @.UXUXBXK .   . , oXUXUXAXuXuXuXiXhXV.= .   ",
"  o c U.UXUXUXIXPXUXUX9XT @ X . .   > *XUXJX}.= 2 <XUXUX(.$       % ].UXUX:X= 7 V . =.IXKXJXG       @ Z  XUXUXUXIXUXKXPXMXA.; X ",
"  +   V 2.:.;.;.-.>.>./ &     .   @ & ( ,.<.Q   = ) >.3.W .       # Q ;.:.) & o     k ,.:.&.7 +   . o   I >.-.,.:.:.2.2.>. .* . ",
"X   . .   . o X X .   O   @       .   X . X o     O     o .   . o X   X o           .   o   o .   o     O     . X X       . @   ",
".       O         .     X     . .   .       .   .   o     o           X   X .       .     o     X     .     X     .   X X     o ",
"  . .     o     .   . o   o   .   o   O X   .     X   X   X       . X       .     X .   . X       o   .     .   X   o   o       ",
"X     X X   @     +       . X           . .   o     .         X   +     X   .   O     @ X   O   o   .     +       .   # X .   . ",
"X     o e h d d f a f - .     .   X @ i f s 9 X X u s s y X X       + O i f d g s s f a d 5 X O   .   + , & ; : > , > # O     . ",
"    $ y *XgXxXdXjXgXuXR   +   @ o   ; Q.zXnXL.@ < '.vXzXD.o   X     o e &XgXfXlXxXsXxXhXuXa.    . @   D $X,X,X<X;X;X;X+Xf o . . ",
"  o g XXHXUXUXUXUXUXKX0X{   o   .   , ,XLXLXXXo 1 3XKXIX'.X X   .   h #XHXUXPXLXIXPXUXPXN.u .     .   Y PXUXHXUXLXUXUXJX^.z O   ",
"  O n VXUXUXY.[ u.FXUXIX6.    O     , *XUXLX.X+ 1 <XIXUX).. O     . V mXPXLXQ.|  .X. . .a     . .   o T KXUXUX'.h.).LXIXUX]     ",
",   n mXIXUX9.  B VXPXUX<.      X   < $XUXUX[.O , >XUXUX(.o X     O n nXUXUX=.X .     X .   . X o     E FXIXPX}   ^ HXPXLX^   : ",
"6 : B cXUXUX3.o C nXUXIX<.o         ; -XIXUX[.O ; 3XIXLX_.o   . .   B BXPXUXH.Y W E T 1 . o       . o U HXUXPX4.y ,.GXUXLX/ > 7 ",
"O 3 L nXUXPX9.  V BXUXPX6.      .   < =XPXUX&Xk N 4XUXUX).+   X     B NXUXUXGXLXPXHXZXF         O     ! FXUXUXMXjXbXUXPXnXO.: + ",
"  . P vXUXUX5.X A nXUXPX,.O   X   . : $XUXUXSXlXxXJXUXUX).o       O N cXPXKXSXNXBXMXhXK X X       X O U GXUXIXUXUXUXUXMX=.a +   ",
"  + v nXIXIX7.o Z MXUXUX<.  O   . X - ;XIXPXLXUXIXUXKXUX/.O . .     N VXUXUXn.n V N N =       X .     R LXUXUXIXUXLXLXDX{.N     ",
"    M mXLXUX9.  V MXUXPX5.    O   . @ Y &XIXUXIXUXIXUX`.Z o     o   M mXUXPX<..   .   . X o   X   .   E SXUXUX'.d.`.IXKXUX/   . ",
"O   m mXUXIX`.0.V.KXLXUX1.o o   O       [ $XUXIXIXUX].P .     O   o Z AXKXLX X6.w.r.8.w.c   +         E LXIXLX}   _ GXPXIX/   o ",
"  X a ).AXKXUXPXPXKXLX<XQ   o     X   o   ^ 1XUXKX*XC . o   o   X   i ^.GXUXKXUXUXPXUXUXP.k . o .   . Y PXLXUX{ % [ rXKXKX_ O   ",
"  O   4 {.qX6X0XtXqX2XS   o   X   . . X O   K ,X;Xj   @   o       . . 5 ].wX8X8XqX8XwX4X5Xr.        o Y hXAXvX$.1 + H uXnXQ   X ",
".     + 1 3 7 4 h p 4 + X   .   . .     O . + 9 4 #       o     .     O 4 4 8 5 5 9 6 3 e -   .   O   > v c H d o . @ x x > .   "
};
