/* XPM */
static char *_af1533cc4fd4ba8f3ff195ce6a50da7hquhdmPSwqFb3nOU[] = {
/* columns rows colors chars-per-pixel */
"224 32 256 2 ",
"   c black",
".  c #010101",
"X  c #020202",
"o  c gray1",
"O  c #040404",
"+  c gray2",
"@  c #060606",
"#  c #070707",
"$  c gray3",
"%  c #090909",
"&  c gray4",
"*  c #0B0B0B",
"=  c #0C0C0C",
"-  c gray5",
";  c #0E0E0E",
":  c gray6",
">  c #101010",
",  c #111111",
"<  c gray7",
"1  c #131313",
"2  c gray8",
"3  c #151515",
"4  c #161616",
"5  c gray9",
"6  c #181818",
"7  c #191919",
"8  c gray10",
"9  c #1B1B1B",
"0  c gray11",
"q  c #1D1D1D",
"w  c #1E1E1E",
"e  c gray12",
"r  c #202020",
"t  c gray13",
"y  c #222222",
"u  c #232323",
"i  c gray14",
"p  c #252525",
"a  c gray15",
"s  c #272727",
"d  c #282828",
"f  c gray16",
"g  c #2A2A2A",
"h  c gray17",
"j  c #2C2C2C",
"k  c #2D2D2D",
"l  c gray18",
"z  c #2F2F2F",
"x  c gray19",
"c  c #313131",
"v  c #323232",
"b  c gray20",
"n  c #343434",
"m  c #353535",
"M  c gray21",
"N  c #373737",
"B  c gray22",
"V  c #393939",
"C  c #3A3A3A",
"Z  c gray23",
"A  c #3C3C3C",
"S  c gray24",
"D  c #3E3E3E",
"F  c #3F3F3F",
"G  c gray25",
"H  c #414141",
"J  c gray26",
"K  c #434343",
"L  c #444444",
"P  c gray27",
"I  c #464646",
"U  c gray28",
"Y  c #484848",
"T  c #494949",
"R  c gray29",
"E  c #4B4B4B",
"W  c #4C4C4C",
"Q  c gray30",
"!  c #4E4E4E",
"~  c gray31",
"^  c #505050",
"/  c #515151",
"(  c gray32",
")  c #535353",
"_  c gray33",
"`  c #555555",
"'  c #565656",
"]  c gray34",
"[  c #585858",
"{  c gray35",
"}  c #5A5A5A",
"|  c #5B5B5B",
" . c gray36",
".. c #5D5D5D",
"X. c gray37",
"o. c #5F5F5F",
"O. c #606060",
"+. c gray38",
"@. c #626262",
"#. c gray39",
"$. c #646464",
"%. c #656565",
"&. c gray40",
"*. c #676767",
"=. c #686868",
"-. c DimGray",
";. c #6A6A6A",
":. c gray42",
">. c #6C6C6C",
",. c #6D6D6D",
"<. c gray43",
"1. c #6F6F6F",
"2. c gray44",
"3. c #717171",
"4. c #727272",
"5. c gray45",
"6. c #747474",
"7. c gray46",
"8. c #767676",
"9. c #777777",
"0. c gray47",
"q. c #797979",
"w. c gray48",
"e. c #7B7B7B",
"r. c #7C7C7C",
"t. c gray49",
"y. c #7E7E7E",
"u. c gray50",
"i. c #808080",
"p. c #818181",
"a. c gray51",
"s. c #838383",
"d. c #848484",
"f. c gray52",
"g. c #868686",
"h. c gray53",
"j. c #888888",
"k. c #898989",
"l. c gray54",
"z. c #8B8B8B",
"x. c gray55",
"c. c #8D8D8D",
"v. c #8E8E8E",
"b. c gray56",
"n. c #909090",
"m. c gray57",
"M. c #929292",
"N. c #939393",
"B. c gray58",
"V. c #959595",
"C. c gray59",
"Z. c #979797",
"A. c #989898",
"S. c gray60",
"D. c #9A9A9A",
"F. c #9B9B9B",
"G. c gray61",
"H. c #9D9D9D",
"J. c gray62",
"K. c #9F9F9F",
"L. c #A0A0A0",
"P. c gray63",
"I. c #A2A2A2",
"U. c gray64",
"Y. c #A4A4A4",
"T. c #A5A5A5",
"R. c gray65",
"E. c #A7A7A7",
"W. c gray66",
"Q. c #A9A9A9",
"!. c #AAAAAA",
"~. c gray67",
"^. c #ACACAC",
"/. c gray68",
"(. c #AEAEAE",
"). c #AFAFAF",
"_. c gray69",
"`. c #B1B1B1",
"'. c #B2B2B2",
"]. c gray70",
"[. c #B4B4B4",
"{. c gray71",
"}. c #B6B6B6",
"|. c #B7B7B7",
" X c gray72",
".X c #B9B9B9",
"XX c gray73",
"oX c #BBBBBB",
"OX c #BCBCBC",
"+X c gray74",
"@X c gray",
"#X c gray75",
"$X c #C0C0C0",
"%X c #C1C1C1",
"&X c gray76",
"*X c #C3C3C3",
"=X c gray77",
"-X c #C5C5C5",
";X c #C6C6C6",
":X c gray78",
">X c #C8C8C8",
",X c gray79",
"<X c #CACACA",
"1X c #CBCBCB",
"2X c gray80",
"3X c #CDCDCD",
"4X c #CECECE",
"5X c gray81",
"6X c #D0D0D0",
"7X c gray82",
"8X c #D2D2D2",
"9X c LightGray",
"0X c gray83",
"qX c #D5D5D5",
"wX c gray84",
"eX c #D7D7D7",
"rX c #D8D8D8",
"tX c gray85",
"yX c #DADADA",
"uX c gray86",
"iX c gainsboro",
"pX c #DDDDDD",
"aX c gray87",
"sX c #DFDFDF",
"dX c gray88",
"fX c #E1E1E1",
"gX c #E2E2E2",
"hX c gray89",
"jX c #E4E4E4",
"kX c gray90",
"lX c #E6E6E6",
"zX c #E7E7E7",
"xX c gray91",
"cX c #E9E9E9",
"vX c #EAEAEA",
"bX c gray92",
"nX c #ECECEC",
"mX c gray93",
"MX c #EEEEEE",
"NX c #EFEFEF",
"BX c gray94",
"VX c #F1F1F1",
"CX c gray95",
"ZX c #F3F3F3",
"AX c #F4F4F4",
"SX c gray96",
"DX c #F6F6F6",
"FX c gray97",
"GX c #F8F8F8",
"HX c #F9F9F9",
"JX c gray98",
"KX c #FBFBFB",
"LX c gray99",
"PX c #FDFDFD",
"IX c #FEFEFE",
"UX c white",
/* pixels */
"+ X   O $ O + @ & &   $ # + # o + # X # o X O   X @ X   @ o   $ .   X     o   o . .                             X   . $ o   @ X . X   + . +   X . o O o o + + o + + O o X X X o o   O o   X   o . o O   . . O + O + + + O O O O O O O + O O O + o . O . . X O     O         X X . @ . o o o # X X . # O +   O     .     . . O . o     . + X o + % %   @ @ O # o O # X # o o O   . + .   O X   + . X O   .   O O O + + + O O O O O O O + O O O + o . O . . X O   ",
"  + O #   ;   O . o # o   X   X X   X   . . X @     O O   O #   X . o X o o @ o + O o o o O o o o o o o o o O O o % =   . O   u   o @ X     X o X   O + o   # o     . . . . . .   O O     O @   O X   X @   o                                     %   @   +   O .   X O o   X . .   o @     O   @ o .   +   O   o X X o O O   O   o . O   =   o   X @ X   X   X X   X   . . X @     o o   o +   o .   X @   o                                     %   @   +   O ",
"o + . # * a U B A Z H Z Z G S G Z F A F Z A c   X @ O X .   . @   $ X   $ .   $ .                   .           o     o O o t { O       o o .   . D Z V F K m D Z Z A S S S A A A S 9 X &     .   + + O   5 I Z S S S S S S S S S S S A A A A A J p $ X + . + # X . o   o . X @ X   . c n j v x z h n M z   O . . O     . o   # X O   + $ i I B A C G C C G A G Z F A F A S v   . O X .       O   O + o   5 I C S S S S S S S S S S S A A A A A J p # . +   + @ ",
". . + .   *XPXUXUXIXJXUXUXUXUXIXIXUXJXHXPXHXfX  @     o o o O . . . . o X . > m x x x x x c c c x x c c x z x c l M f o   7 } 0   o o $ o X   o , UXKXPXKXIXPXIXUXUXUXUXUXUXIXIXPXUXi.o   . @ X . . X   X ;.KXUXIXIXUXUXIXIXIXIXIXIXIXPXPXPXPXKXUX`.  +   #       . O .   o     $   8 UXJXLXIXIXIXUXPXKXBX@       $ o O O . X       o     &XPXUXUXIXJXUXUXUXIXPXUXUXKXKXUXJXgX  +     . X X o     . X   X ;.KXUXIXIXUXUXIXIXIXIXIXIXIXPXPXPXPXKXUX`.  O   @     ",
"+   o # o {.LXVXJXUXJXUXLXIXPXLXHXKXPXFXAXUX&X    o $ O . .   X o . # . $   ] UXPXPXPXPXPXPXPXPXLXPXIXPXPXLXLXPXUXHX|.  r [ 0 o . $ o     . #   + JXGXUXLXJXUXKXPXPXLXLXKXKXKXKXJXJX4.o = X   + o   o %   %.UXJXPXPXPXPXPXPXPXPXLXPXPXLXLXLXKXJXIXK.. $ . O O o O   . O   + # O . @ % JXPXUXIXUXUXDXFXUXkX  X X             O X O   . + . [.LXVXJXUXKXUXPXIXPXKXJXLXUXHXDXUX=XX   X @ o       . o   o %   %.UXJXPXPXPXPXPXPXPXPXLXPXPXLXLXLXKXJXIXK.. $   o O X ",
"X + . O @ `.UXKXUXUXPXKXGXIXKXKXUXFXJXUXJXSXJX$XwXJ   # .   O . @ +   O . @ U JXUXUXUXUXUXUXUXUXUXUXUXUXUXUXUXIXKXUX|.< } w &   O   + $ +   9.fX*XUXUXUXUXPXKXPXLXLXKXKXKXKXLXLXIXKX3.X + . O . O O . @   +.PXJXUXUXUXUXUXUXUXUXUXUXUXIXUXUXUXLXJXR.X . o     o o @   . @ .   @ *.%X.XJXUXAXHXUXKXIXUXKXHX_.3XL - o @ X . o   + . O   X + _.UXLXUXUXIXLXHXUXKXKXUXHXKXUXPXGXLX%XwXH   +     o   o o   @   +.PXJXUXUXUXUXUXUXUXUXUXUXUXIXUXUXUXLXJXR.X   X     o ",
"  @ o . o [.UXLXPXKXLXIXUXHXUXUXLXUXLXHXLXKXGXUXUX_ + @   X .     O $   D.{.:XUXKXKXLXLXKXKXJXKXKXKXJXKXKXKXJXHX;.Y Q ` e . o $ o   X . @ X n.LXPXKXLXUXIXUXPXPXUXUXUXUXUXUXUXUXJXUX9.@ X o +     o X # . #.UXKXIXIXIXIXUXUXUXIXIXUXUXIXIXUXIXLXIXD.@ o   # . .   $ O . &   o   F.UXKXIXKXUXUXLXLXUXLXUXPXKXJX9.  #   . o @   o   O .   X [.UXLXPXKXPXUXUXKXUXUXIXUXIXKXIXPXHXUXUX) O +   . .     o X # . #.UXKXIXIXIXIXUXUXUXIXIXUXUXIXIXUXIXLXIXD.+ o   # .   ",
"# X . X   {.UXKXUXUXLXLXMXoX&X+X}.1XUXJXUXJXPXHXLXR . #   o . X +   + @ dXUXKXPXIXUXUXUXUXIXIXIXUXIXPXIXUXUXIXLXz 5 ) q   $   X   .   o O . M.UXFXUXIXUXPXPX#X%X#X#X#X$X$X#X#X#X#X9X}   @ O   O #     &   o.UXDXIXIXIXIXUXUXUXIXPXIXIXPXIXUXIXKXUXI.  + o   X . @   % X . $ v 7 !.PXKXPXUXJXHXUXIXUXLXIXUXFXIXu.6 v o o   X o   O     .   [.UXKXUXUXPXPXBX+X*X@X|.2XUXKXUXLXIXJXLXR   +   X   . @     &   o.UXDXIXIXIXIXUXUXUXIXPXIXIXPXIXUXIXKXUXI.  + o   X . ",
".   . X   }.UXKXUXIXLXPX3X. .   o t IXPXJXUXKXUXUX! o O   X .     X . . eXIXLXUXHXKXUXVX7XaXwX0XrXrXtXyXtXyXeXlXJ ` e X   O o . o o   o O . M.UXKXLXPXLXHXmX. X O O +   X X X o   o   . o o O   @   o $   =.UXKXLXUXKXPXPXUXKXIXLXUXHXUXIXZXUXFXKXL.o . +   X O . . X o . 0 UXIXJXLXUXIXIXUXHXLXLXKXUXPXUXIXIXUXUXVXO       X   .   . X   }.UXKXUXIXLXPX2X      o y UXUXLXUXKXUXUX! o o   . .   +   X $   *.UXKXLXUXLXPXPXUXLXIXLXUXHXUXUXAXUXGXLXL.o   O   X o ",
".   . X   }.UXKXIXUXJXUX8X  +   + h HXUXHXUXUXPXIXE   + O .   O   X X . rXUXLXIXUXLXUX).  o . # . . +   @ O   6 Q q X     X   .   X @ . + o M.JXJXPXUXKXUXzXo     o X + O . .   # . O O       O .   @ # o <.PXUXFXGXLXUXHXKXUXIXKXUXJXHXDXUXGXIXUX!.  @   $ +       . X   9 UXPXPXIXFXPXHXIXLXIXUXKXKXDXJXKXLXIXPXMX.   .   X   .   . X   }.UXKXUXUXJXUX7X  O   + h KXUXJXUXUXPXIXE   O O .   o     + @ X ,.PXUXGXHXPXUXJXLXUXIXKXUXJXHXFXUXHXUXUX!.  @   # +   ",
".   . X   }.UXKXLXGXKXLX5Xo X &   V KXGXPXKXKXUXUXE   o   @ $     . . . rXUXLXIXPXJXUX'.X :     + @ . $   X s ` w   @   X O     .   + . .   b.UXGXGXUXGXPXnX@   & . % O   &   =   + o   # # . X X O   X   q U B MXPXJXLXLXIXJXPXPXIXPXGXUXFXFX` B h o . +   @ .       .   8 IXLXJXUXJXFXUXB.M _ T C }.UXSXKXUXFXLXbX    X   .   .   . X   }.UXKXIXJXKXLX4XX X &   V LXJXUXLXLXUXUXE   o   O #   . O   X   0 U B NXIXJXPXLXIXJXPXPXIXIXHXUXGXFX` B h o   O   + . ",
".   . X   }.UXKXLXUXFXIX5X  @   X y UXKXLXUXLXUXIX! + %     o o   . . . rXUXLXIXGXFXUX X  # # O   # o   $ t ' 0 .   O   # X   O @ X   o + @ M.IXKXLXPXUXIXzXO   .     o   o X o . .   # X   @ o X O   + #   X . xXKXLXUXGXIXUXPXUXPXLXJXJXIXUXr * . . o % O   X       X   8 UXPXIXIXUXKXJXX.X X   o c.HXUXJXPXUXPXbX  . o       .   . X   }.UXLXIXUXGXIX5X  +   X y UXLXIXUXPXUXIX! O $     X . . o   O #   . . xXKXLXUXGXIXUXPXUXPXLXJXKXUXUXr * .   X $ o   . ",
".   . X   }.UXKXKXKXIXJXuXM G G M &.LXUXIXLXLXLXPX/   . O X X . . X     eXUXPXUXUXHXKX].+     X . O o X 0 ( 9 . o .   O o   o .   @ o o X   N.JXBXGXIXJXPXzXI A A F A F H D P C # o     . X o .   . + +   . + o [.1X#X<XIXUXFXUXPXUXUXqX[.1X=X4   # . .   @ $       . X . 9 UXPXUXHXUXJXUX>.  - . X I.KXSXUXKXIXIXnX  X O       .   . X   }.UXLXPXLXUXKXuXM F F M &.PXUXUXPXPXLXPX/   . o X X       O +     + o [.1X#X<XIXUXFXUXPXUXUXqX[.1X=X4   #       + #   ",
".   . X   }.UXKXLXUXKXLXKXUXKXUXUXIXJXPXHXLXUXJXUXQ   @     #   . X     eXUXPXUXGXPXLX&X0 N v z m z n W 9.S %   . . + #   o X   .   .   @   V.UXJXFXCXGXUXPXPXUXUXIXUXKXPXPXUXAX$   X   o #   o X . .   . @ @ o   .   5 UXJXPXUXIXFXGX_ X   O X $ . $ o *   X .       X   9 UXPXJXUXHXCXUX-.o O @   M.UXKXLXUXDXPXbX  . o       .   . X   }.UXKXIXUXLXPXLXUXKXUXIXUXKXUXKXPXUXJXUXQ   +     #   X . .     @ @ X   .   5 UXJXPXUXIXFXGX_ X   o . $ . # X &   X . ",
".   . X   }.UXKXLXHXUXIXUXZXPXPXFXUXPXUXPXPXLXUXIX( X + X   @ . . .     eXUXPXUXUXBXUXUXPXUXPXUXUXUXIXUXLXXX. . @ .   X O + . + o O # . . $ m.LXLXUXKXAXJXPXJXUXGXPXFXUXPXSXKXcXX X X O     o +   o X . @ X   o @ @ X i LXKXKXUXLXLXIX| X % @   o . @   X #   .       X   9 UXPXIXSXUXPXKX=.  . X   n.HXIXLXJXUXPXnX    o . .   .   . X   }.UXKXPXKXUXUXUXAXIXPXFXUXIXUXIXIXLXUXIX( . + .   +     o . . + .   X @ @ X i LXKXKXUXLXLXIX| X % @   o   +   . #   . ",
".   . X   }.UXKXUXKXLXIXGXPXUXPXIXPXKXJXKXPXdXx G > X   O o   o   .     rXUXPXUXDXUXGXIXIXIXUXUXLXKXUXbXUX[.  $   O o O     @     X . O o o y N P IXKXSXVXDXUXLXUXGXKXIXHXUXKXHX<XiX+.  O o     o     .   X o . X o   e IXUXUXKXIXHXUX}   @ . O   #   @ @   . .     . X . 9 UXPXIXUXPXUXKX7X`.oX|.^.hXUXPXUXJXJXIXmX    X . .   .   . X   }.UXKXUXLXPXUXJXUXUXPXIXPXLXLXLXPXdXx G > .   o X   . o         . X   X X   e IXUXUXKXIXHXUX}   @   O   @   + +   . X ",
"      X   [.UXJXIXKXIXGXUXPXKXPXHXJXUXPXPXUX3X    + X   O . @     .     eXUXPXUXUXIXDXUXLXUXGXLXKXHXcXNXGX{.o o . .         . X +   +   + .     = PXUXPXFXKXLXKXUXLXIXFXUXUXJXIXLXUX7.+ @ .                       O . r UXPXUXUXIXKXUX| . @   .                       O   9 IXIXPXPXUXKXUXLXLXUXUXKXUXJXUXKXUXJXUXvX    .             X   [.UXJXUXPXUXJXUXIXKXPXLXPXUXUXPXUX3X    + X   o   +                     O . r UXPXUXUXUXKXUX| . @   .                 ",
"      X   [.UXJXUXLXIXUXIXFXPXUXUXKXDXHXPXGXpXC ^ 2   + +   . @   .     eXUXPXUXUXGXUXSXIXUXJXUXUXGXUXPXUX X  @                   O O o     X o , :X+X+X;XoX%XeX*X+X-XPXFXJXUXDXKXUX6.. o . X .                   O . r UXPXUXUXIXKXUX| . @   .                       O   9 IXIXUXIXJXIXPXDXHXPXPXHXPXPXLXPXJXUXUXvX    .             X   [.UXJXUXLXIXUXUXGXIXUXUXPXGXJXPXGXpXC ^ 2   O o     O                   O . r UXPXUXUXUXKXUX| . +   .                 ",
"      X   [.UXJXIXIXIXUXLXGXUXJXFXGXUXPXKXUXLXUXJX) O   X + . .   .     rXUXPXUXKXKXIXDX,X7XiXhX2X9X2X3XfXD.+ .                 o +   .     o   O   + #   O . 7 L 2   UXKXPXPXUXHXUX6.  . X o .                   O . r UXPXUXUXIXKXUX} . @   .                       O   9 IXIXLXIXUXIXKXUXGXKXGXHXUXPXKXUXLXLXUXvX    .             X   [.UXJXIXUXIXUXPXHXUXKXHXKXUXIXLXUXLXUXKX) o   . o                       O . r UXPXUXUXUXKXUX} . +   .                 ",
"      X   [.UXJXLXUXHXJXHXUXPXPXUXJXJXPXLXKXUXAXUXR X O   X       .   . rXUXLXUXUXSXKX).  0 J < @   . % +   o   X .       . . X o X . . o   X   X + @ . X o o   u ) z KXUXDXUXHXHXIX6.. X X X                     O . r UXPXUXUXUXKXUX} . +   .                       O   9 IXIXPXIXGXPXIXGXUXIXUXUXUXPXIXZXUXIXUXvX    .             X   [.UXJXPXUXJXKXJXUXIXPXUXLXLXUXPXLXUXSXUXE X o   .                       O . r UXPXUXUXUXKXUX} . +   .                 ",
"      X   [.UXJXPXUXJXPXpXb G J k o.PXIXIXKXUXIXHXY   X   X o   . .   . rXUXLXUXDXUXJX'.q ^ a   . . o   X o + X X .       X o o   . O . . X + $ &   +   X @   . = 0 [ JXLXPXIXIXKXIX5.X O                         O . r UXPXUXUXUXKXUX}   +   .                       O   0 UXIXDXUXUXHXUXB.N U W m .XLXFXUXPXHXUXvX    .             X   [.UXJXIXUXLXIXpXv F G k O.IXUXIXKXUXIXKXR   X   X o                     O . r UXPXUXUXUXKXUX}   +   .                 ",
"      X   [.UXKXJXKXJXPX4X$   # # i IXUXLXIXPXDXKX^ + # X   . . . .   . rXIXLXUXUXDXUX%XA f X   # @ % $ % # O X . .     . X X .   .   o o . X     + O .     o +   . f UXHXUXIXKXPXIX5.X o     X                   O . r UXPXUXUXUXKXUX}   +   .                       O   0 UXUXIXUXHXIXPX@.  o . . V.PXHXIXLXIXUXvX    .             X   [.UXKXKXLXKXPX3X@   o # i UXUXPXUXIXFXPX/ + @ .                         O . r UXPXUXUXUXKXUX}   +   .                 ",
"      X   [.UXKXUXPXPXIX7X+ + :   z UXHXPXUXGXUXKXR   O O o   . . .   . rXIXKXUXUXFXPX3X2 o o o X .   & o   @   X .     . . .       . + &   x ! S J G L L F K G D S R AXPXKXFXUXKXIX5.. o . . .                   O . r UXPXUXUXUXKXUX}   +   .                       O   0 UXUXUXLXIXJXUX>.X # o + D.UXGXIXPXLXUXvX    .             X   [.UXKXUXIXIXIX6Xo o =   x UXKXUXUXHXUXLXR   O O o                       O . r UXPXUXUXUXKXUX}   +   .                 ",
"      X   {.UXKXLXKXLXUX6X  O O @ l UXDXUXJXIXHXUXY   X   o   o . .   . rXIXKXUXUXUXPX:X2 c n c d m z n b x k B + o       . . .     @   * @ F.UXIXKXUXKXPXPXJXUXUXPXUXIXZXLXUXKXFXPX6.. o o X                     O . r UXPXUXUXUXKXUX{   +   .                       O   0 UXUXUXUXIXJXPX;.+   &   A.JXIXIXLXIXUXvX    .             X   {.UXKXPXLXLXUX6X  o X + k UXGXUXKXUXJXUXT . X   o   o                   O . r UXPXUXUXUXKXUX{   +   X                 ",
"O   + +   }.UXKXLXIXLXIX5Xo   & O M PXIXKXUXUXJXUX!   + o   o .   o . + 9XUXJXLXUXJXGXKXIXIXIXUXUXUXIXPXPXPXPXPXB   @ # X + X O   .   O . . B.HXPXPXPXPXPXPXPXPXIXLXPXUXDXBXUXPXUXPXy.& @ X .               . .   X . q IXLXUXIXJXUXDX+.X o   X       . .       X   X . . q UXIXHXUXPXPXLX;.. @   @ Z.IXKXUXUXHXIXMX  o X   X X o   o O   }.IXKXIXUXPXIX4XX   $ X M PXUXKXUXUXLXUX~   + o   X .             . .   X . q IXLXUXIXJXUXSX+.X o   .       . .       ",
"O o   O X  XPXGXFXSXHXLX8Xo X @   = K y $XLXJXAXJXQ . X X O X     #     xXIXLXLXGXFXGXLXUXIXPXPXUXUXIXIXIXIXIXIXs O           o   O   . +   N.IXHXJXKXLXKXKXKXKXJXPXHXHXLXSXDXmX^ A 0   O   o .             . .   + o r UXKXKXPXHXIXPX}     @                     o X $   w JXLXUXUXHXDXKX%.  # .   S.PXKXJXPXKXLXxX.   @ o o   X .   o . |.PXGXHXFXHXLX7XX . O   * K y $XPXKXSXJXQ . . . o .               . .   + O r UXKXKXPXHXIXPX}     @                   ",
"  # X + o `.IXPXUXHXUXIXqXX @   +   .   OXUXGXPXIX/ o   X +   . o @ @ O H D f.UXCXSXHXLXPXLXKXJXLXLXLXLXLXLXLXLXoX+Xa.$ & X O X O O + o     C.UXJXLXIXUXIXPXIXIXUXLXPXUXIXPXLXkX( 9   O X @ .                   . o   y KXIXLXIXIXPXIX@.X + o                   X #   o o q LXUXLXPXIXHXUX;.X X + O S.IXLXIXIXLXUXxXO .   +   .   @   o X _.PXPXUXJXUXIX0X. O   o       OXUXJXUXIX/ o   . o                     . o   y KXIXLXIXIXPXPX@.. + X                   ",
"O . . X . c.8XOX|.%X{.6XZ.  + @ O @ O o g.wXOX X6XN   $ X   o X O   . . + X ^ HXJXPXUXIXIXUXUXIXIXIXUXUXUXUXIXIXUXUXoX      . O       X #   ;.8X+X@X#X$X$X#X#X$X%XoX%X*X+X#X-X).d { w   . o . X                     X 4 6X;X%XoX=X+X7XL O + . o             . . +   # +   9 :X3X4X3X9X>XgX(   @ X   e.hX4X2X5X8X,X$Xo o @ O     o     .   z.6XoX X&X{.5XC.  O O X + O o f.wXOX.X6XN   # .   X .                     X 4 6X-X$XXX*XOX6XL O +   X             . . ",
". . X $ . X   O o   &   @ O #     @     *   &       o   O o . . + O $ . X   I tX3X4X4X2X2X4X4X3X4X4X4X5X5X4X3X3X1XgXf.+ +   # X o . @ X o . O   .                   .       O     0 ..9 O X   @                 o X .   o   O O   X   O #   O               . . X X O   O O @ o .     O . O     @ O . o   @   o O     $   + . .     . @       o o   %   + X +     +     %   $       X   o X                     o X .   X   O o   X   o @   o               . . ",
"@   X   X @ * + o o X + . $ @ + @ X     * @ . @ . . o X     @ o   O   X   X   o   .       . .     . . . .         . O   X O   o         + %   # @ O X X o o o X + X O o O O $ @ X X 4 [ e X X O .               @   . o $ # *   X @ $   & X o .                 . . o X . O     . X O X o . X     . o # #   +   X   o X X   . . +         O % o X o . O   @ O o o .     $ X   @ .   X .     + X .               @   . X # @ &   . @ #   % . X                   ",
". + % O   O o o o   # + &   X   @     +   + o X o     X # X .   X + O   #   +     . . . . . .         . . .         @ . O     .     # $   o o X .               o   o X   . +   . + + 9 ) w   . . . .               o +   . @ + . O X X   o   + . . . .           O . + @   # X X O + .   X o   o + o   O . % o o o X o   o       o # X   X .   o   @ o $       O   . +   X . . o     . @ .     . . .               X +     + O   O . .   X   O . . . .         ",
"X X   @ o $   $   . X   X X O X   # .   @ O X   .   +   o X   + X   +   X   O X X . . X X . . X     . . . . . . O @     #   o   o X   o X   o     . . . . . . .   @ #   + X   o X     . w ] e X . . . . . . . .   X   o o X   o O   O . X O X X X X X X X . .   +   . @   #   X .     . . . . . . X o o     X     o o   X . . o       + . @   +     .     . o .   # .   + X     .   o   X .   O . . . . . . . .   X   X X .   X o   o   . o . . X X X X X . .   "
};
