/* XPM */
static char *_bc2e041f8d448e4ff0e2cef239a3d5a0BwXZnbDss1BucGj[] = {
/* columns rows colors chars-per-pixel */
"32 32 155 2 ",
"   c None",
".  c #805E48",
"X  c #826049",
"o  c #82604A",
"O  c #83614A",
"+  c #83614B",
"@  c #84614B",
"#  c #84624B",
"$  c #85634C",
"%  c #86644D",
"&  c #87654D",
"*  c #896750",
"=  c #896850",
"-  c #8A6850",
";  c #8B6850",
":  c #8B6951",
">  c #8D6B52",
",  c #8E6C53",
"<  c #8E6D54",
"1  c #8F6D54",
"2  c #906D54",
"3  c #916D55",
"4  c #916E55",
"5  c #916F56",
"6  c #926F56",
"7  c #937057",
"8  c #927157",
"9  c #937157",
"0  c #947057",
"q  c #957359",
"w  c #967259",
"e  c #97735A",
"r  c #99785D",
"t  c #9A795E",
"y  c #9A7A5E",
"u  c #9B7A5F",
"i  c #9C785D",
"p  c #9C7B5F",
"a  c #9E7A5F",
"s  c #9E7D61",
"d  c #9F7D61",
"f  c #A07C61",
"g  c #A17D62",
"h  c #A27D62",
"j  c #A27E62",
"k  c #A37E63",
"l  c #A37F63",
"z  c #A18064",
"x  c #A28165",
"c  c #A38366",
"v  c #A58065",
"b  c #A58165",
"n  c #A68165",
"m  c #A58467",
"M  c #A98468",
"N  c #AA8568",
"B  c #AA8669",
"V  c #A8886A",
"C  c #A9886B",
"Z  c #A9896B",
"A  c #AB8B6D",
"S  c #AE896C",
"D  c #AF8A6C",
"F  c #AC8C6D",
"G  c #AD8D6E",
"H  c #AF8F6F",
"J  c #B18D6F",
"K  c #B28C6F",
"L  c #AF9070",
"P  c #B29373",
"I  c #B49072",
"U  c #B69172",
"Y  c #B39473",
"T  c #B39474",
"R  c #B59575",
"E  c #B69675",
"W  c #B79776",
"Q  c #B99576",
"!  c #B89776",
"~  c #B89877",
"^  c #BA9A78",
"/  c #BA9B79",
"(  c #BD9979",
")  c #BE9A7A",
"_  c #BF9A7A",
"`  c #BE9B7A",
"'  c #BB9C7A",
"]  c #BB9C7B",
"[  c #BF9C7B",
"{  c #BC9D7C",
"}  c #BE9F7D",
"|  c #C09C7B",
" . c #C29D7C",
".. c #C1A280",
"X. c #C5A280",
"o. c #C5A381",
"O. c #C4A481",
"+. c #C6A481",
"@. c #C7A582",
"#. c #C7A683",
"$. c #C6A784",
"%. c #C8A582",
"&. c #C6A884",
"*. c #C7A985",
"=. c #C8A885",
"-. c #C8AA85",
";. c #CBAA86",
":. c #CAAC87",
">. c #CBAD88",
",. c #CCAE89",
"<. c #CEB08A",
"1. c #CEB08B",
"2. c #CEB18B",
"3. c #CFB18B",
"4. c #CFB18C",
"5. c #D0B08B",
"6. c #D1B08B",
"7. c #D0B28C",
"8. c #D2B48E",
"9. c #D5B58F",
"0. c #D5B790",
"q. c #D7B791",
"w. c #D7B891",
"e. c #D7B992",
"r. c #D7BA93",
"t. c #D8B892",
"y. c #D8B992",
"u. c #D9BA93",
"i. c #DABB94",
"p. c #DABD95",
"a. c #DBBD95",
"s. c #DBBE96",
"d. c #DCBE96",
"f. c #DCBF97",
"g. c #DDBF97",
"h. c #DDC097",
"j. c #DDC098",
"k. c #DEC098",
"l. c #DEC198",
"z. c #DFC198",
"x. c #DEC199",
"c. c #DFC199",
"v. c #DFC299",
"b. c #E0C299",
"n. c #E0C29A",
"m. c #E0C39A",
"M. c #E0C49A",
"N. c #E1C49B",
"B. c #E1C59B",
"V. c #E2C59B",
"C. c #E2C59C",
"Z. c #E2C69C",
"A. c #E3C69C",
"S. c #E3C69D",
"D. c #E3C79D",
/* pixels */
"                                                                ",
"                                                                ",
"                                                                ",
"                                                                ",
"                                                                ",
"                                                                ",
"                                                                ",
"                                                                ",
"                  O                                     #       ",
"                e l 7       O . O O                   p l >     ",
"    O O #     w | y.d     # f n n f O               p O.9.7     ",
"  : M M M f . Z z.C.) 4 # n 6.q.w.6.n % @         . Q n.M.I >   ",
": J w.y.i.^ 4 %.C.n.h.p f 6.n.M.C.z.;., S g + @ O s 6.C.n.w.7   ",
", w.M.M.C.} m n.n.M.M.d O.n.x p p.C.1.r p.;.S I w W z.M.M.z.7   ",
"< p.M.i. .M Z M.M.C.I % ,.C.Q U j.C.1.r C.z.p.f.o.;.M.n.z.x     ",
"  r d.d.d.6.x Y C.M.O.7 O.M.h.h.p.C.1.r C.n.z.z.C.Z ..C.M.) 4   ",
"  4 ) O.M.C.W G D.n.n.o.q &.w.9.r 9.&.r v.D.] F h.c } M.M.z.) * ",
":  .z.z.C.z.Y Z z.M.M.M.s % = :   : % r C.C.] O : O ] z.C.M.p.< ",
"< z.M.z.1.^     L 6.1.1.r             p C.z.T       # { 1.1.,.< ",
"< &.;.} #         % % @               r :.W           @ % @ %   ",
"  + O O                                 O                       ",
"                                                                ",
"                                                                ",
"                                                                ",
"                                                                ",
"                                                                ",
"                                                                ",
"                                                                ",
"                                                                ",
"                                                                ",
"                                                                ",
"                                                                "
};
