/* XPM */
static char *_69121a27ba4438caae4bdca15fb1c947hegphtVqir7DlXE[] = {
/* columns rows colors chars-per-pixel */
"32 32 18 1 ",
"  c None",
". c #543F2D",
"X c #5D4631",
"o c #695235",
"O c #755E38",
"+ c #4D6936",
"@ c #547036",
"# c #577437",
"$ c #5B793A",
"% c #826C3C",
"& c #65823A",
"* c #67853C",
"= c #6A873D",
"- c #6B893D",
"; c #6C8A3D",
": c #748F42",
"> c #759340",
", c #7B9943",
/* pixels */
"              $$$ $$            ",
"           $$$,,-$,,$$          ",
"          $,,$,::-:,::$$        ",
"         $$,::$::::::::,$       ",
"        $::$:::=::==::,,$       ",
"       $,:::::=====::::$$$      ",
"       $,,-:::::===::::::,$     ",
"     ##$--$:::::=::-::::,,$     ",
"    #;;&$$,::::::::::::::$$     ",
"    #;;&&$,,$:,:::::::,:::,$    ",
"   ###;;;&$$$,,$&::::*,,$,,$    ",
"  #>;;;;&&&&&$$&&&&::$**$$$     ",
"  #>;;;;&&&;&&;;&&&&&&$$&&&#    ",
"  ##>;;;;;;;;;;;&&&&;;&&;;&#    ",
" #>;;;;;;;;;;;;&&;;&;;;;;;##    ",
" #>>#;;;;;;;;;#&&;;;;;;;;;>>#   ",
"  ##>;;#;;;;;;>#&&;;;;;;;;;>##  ",
"   #>>#>;;;;#>>#&;;;;;;;;;;#-># ",
"  +&###>>#;>###&&;;&;;;;;;;;>># ",
" +;&&&&###>>#&&&&&&;;;;;;;;;##  ",
" +;;&&&;&&##&;;&;;&;;;;;;;;;>#  ",
"  ++;;;@;;&&;>;>;;#;;;;;;#;>>#  ",
"   +;;@>;;>;>>@>>#>;;;;;;>###   ",
"    ++@>>@>>@@o@@#>>#;>#>>#     ",
"       @@ @@.ooooo###>>###      ",
"            XOOoooo. ##         ",
"            XOOOOoo.            ",
"            XOOOOOOX            ",
"            XOOOOOOX            ",
"           XXOOOOOOXX           ",
"          X%%OO%XOO%%X          ",
"         X%%OXXO%XXO%%X         "
};
