/* XPM */
static char *_ae91f9596414437bcd6f2a1e0b6eda4OKwdyVigALdUFQH9[] = {
/* columns rows colors chars-per-pixel */
"16 16 8 1 ",
"  c None",
". c #2F532B",
"X c #365F2D",
"o c #3A6A30",
"O c #3D7133",
"+ c #427735",
"@ c #4A8034",
"# c #549238",
/* pixels */
"                ",
"                ",
"     oo         ",
"    o##o oo     ",
"    o#@oo##o    ",
"   o@o#@#@#oo   ",
"  o#@@o@@oo@#o  ",
" Xo##o#@o@@##o  ",
"X#@ooo##o@#oo@X ",
"X##@++oo+##o@#X ",
" XX#@@+++oo@##X ",
".OX##+@@#@@@XXO.",
".@OXX#@X##X@#X@.",
" ..OX##XXXX##X. ",
"  .@OXXOOOOXX@. ",
"   ..@OO.OO@..  "
};
