/* XPM */
static char *_0daa404c2434ef6c0312e3e36c8c5132stX8rAYfjwk9Ul1[] = {
/* columns rows colors chars-per-pixel */
"32 32 5 1 ",
"  c None",
". c #3A3737",
"X c #827C7C",
"o c #B7B3B2",
"O c #EFE9E7",
/* pixels */
"                                ",
"                                ",
"                                ",
"      ...             ...       ",
"      .oO.           .Oo.       ",
"      .oOO.         .OOo.       ",
"      .oOOo.       .oOOo.       ",
"      .XOOOX.     .XOOOX.       ",
"       .oOOOX.   .XOOOo.        ",
"       .XOOOo.....oOOOX.        ",
"        .oOOOoXXXoOOOo.         ",
"         .oOOoooooOOo.          ",
"          .oOoooooOo.           ",
"         .XOoooooooOX.          ",
"         .oooOOOOOooo.          ",
"        ..ooOOOOOOOoo..         ",
"        ..oOOOOOOOOOo..         ",
"       .X.XOOOOOOOOOX.X.        ",
"       .oo.ooOOOOOoo.oo.        ",
"      .XoOoXoOOOOOoXoOoX.       ",
"      .XOOOOoOOOOOoOOOOX.       ",
"      .oOOOOOOOOOOOOOOOo.       ",
"      .OOOOOOOOOOOOOOOOO.       ",
"      .oOXOOOOOOOOOOOXOo.       ",
"       .o.oOOOOOOOOOo.o.        ",
"      ..X.XOOOOOOOOOX.X..       ",
"      .oo..oOoXXXoOo..oo.       ",
"      .OOX.XX.oOo.XX.XOO.       ",
"       ......oOOOo......        ",
"            .XOOOX.             ",
"             .....              ",
"                                "
};
