/* XPM */
static char *faf33f5bbd8e48feab36c6c367861e78VHEm14d8TgW5chYT[] = {
/* columns rows colors chars-per-pixel */
"32 32 8 1 ",
"  c None",
". c #3A3737",
"X c #827C7C",
"o c #BC8B6D",
"O c #CDAE67",
"+ c #B7B3B2",
"@ c #D6B39D",
"# c #EFE9E7",
/* pixels */
"                                ",
"                                ",
"             ..  ...            ",
"            .#. .X+.            ",
"           .X#..+##.            ",
"           .##..###.            ",
"          .X##.+#@#.            ",
"          .+#+X#@@#.            ",
"          .+#.+#@@.             ",
"         ...X.#@@@.             ",
"        .##++X#@@o.             ",
"       .+####X#@o.              ",
"      .X#######@+.....          ",
"      .+##.#+###X+##+X..        ",
"     .+##+..###+X######+.       ",
"    .X##################+.      ",
"    .+########+##########X.     ",
"    .OO.#####+X##########+.     ",
"     .X####+.X############X.    ",
"      ..X+X.+#############+.    ",
"        ...+##############X#.   ",
"          .+####+#########+#.   ",
"          .X+###++########++.   ",
"           .X++++.+####+##X.    ",
"           ...X++X.X++.+#+X.    ",
"           .X..+++....X+++.     ",
"          .+.X###+..X##++X.     ",
"          .+.####. .+###..      ",
"           ......   .....       ",
"                                ",
"                                ",
"                                "
};
