/* XPM */
static char *_d0abd26d0e64c52f03809b1bf6d949fLXg6ASiM4FhK5gyX[] = {
/* columns rows colors chars-per-pixel */
"32 32 4 1 ",
"  c None",
". c #85634C",
"X c #BA9475",
"o c #E0C39A",
/* pixels */
"                                ",
"                                ",
"                                ",
"                                ",
"                                ",
"                                ",
"                                ",
"                    ..          ",
"                   .XX.         ",
"          ..      .Xoo.  ..     ",
"      .. .XX.  .. .ooo. .XX.    ",
"    ..XX..ooX..XX..oo. .Xoo.    ",
"   .XXoooXoooXXoo. ..  .oooX.   ",
"  .Xoooooo.oooooo..XX..Xoooo.   ",
"  .oooXXoo..ooo.. .ooX.ooooo.   ",
"  .oooooo.XXoooX. .oooXoooo.    ",
"  .oooXX..ooo.ooX. .ooo.oooX.   ",
"  .oooXoo.oo..ooo. .ooo.ooooX.  ",
"   .ooooo...  .oo. .ooo.ooooo.  ",
"    .ooo.      ..  .oo. .oooo.  ",
"     ...            ..   ....   ",
"                                ",
"                                ",
"                                ",
"                                ",
"                                ",
"                                ",
"                                ",
"                                ",
"                                ",
"                                ",
"                                "
};
